{"glyphs":{"0":{"ha":765,"x_min":82,"x_max":741,"o":"m 741 688 q 687 322 741 487 q 543 72 634 157 q 330 -14 451 -14 q 145 73 209 -14 q 82 333 82 159 q 137 672 82 507 q 283 922 193 838 q 493 1007 374 1007 q 741 688 741 1007 m 486 909 q 345 831 410 909 q 239 611 279 752 q 199 325 199 470 q 342 83 199 83 q 484 161 419 83 q 586 384 548 238 q 624 690 624 529 q 486 909 624 909 z "},"1":{"ha":765,"x_min":205,"x_max":611,"o":"m 282 0 l 415 619 q 475 863 453 787 q 380 787 442 828 l 260 713 l 205 799 l 510 991 l 611 991 l 399 0 l 282 0 z "},"2":{"ha":765,"x_min":8,"x_max":732,"o":"m 612 762 q 572 869 612 829 q 461 908 531 908 q 358 888 408 908 q 249 823 309 869 l 193 901 q 473 1006 322 1006 q 662 946 592 1006 q 732 781 732 886 q 705 642 732 705 q 615 508 678 579 q 416 318 553 437 l 178 110 l 178 104 l 637 104 l 618 0 l 8 0 l 29 100 l 345 385 q 518 551 477 505 q 607 705 591 631 q 612 762 612 732 z "},"3":{"ha":765,"x_min":32,"x_max":728,"o":"m 473 1006 q 662 947 595 1006 q 728 784 728 888 q 659 606 728 681 q 469 511 591 533 l 469 505 q 602 433 553 490 q 650 292 650 376 q 650 288 650 290 q 554 70 650 154 q 296 -14 458 -14 q 293 -14 294 -14 q 32 40 150 -14 l 32 151 q 167 100 95 118 q 296 82 239 82 q 466 136 405 82 q 528 280 528 189 q 475 418 528 372 q 325 464 422 464 l 236 464 l 257 561 l 351 561 q 537 620 463 561 q 611 774 611 679 q 572 873 611 836 q 471 909 532 909 q 358 891 410 909 q 240 828 306 872 l 186 908 q 473 1006 318 1006 z "},"4":{"ha":765,"x_min":11,"x_max":746,"o":"m 566 227 l 517 0 l 406 0 l 456 227 l 11 227 l 31 334 l 596 997 l 729 997 l 589 330 l 746 330 l 724 227 l 566 227 m 478 330 l 531 583 q 610 885 551 682 l 604 885 q 559 820 594 867 q 510 754 525 773 l 149 330 l 478 330 z "},"5":{"ha":765,"x_min":54,"x_max":743,"o":"m 367 514 q 207 489 301 514 l 157 528 l 290 991 l 743 991 l 721 888 l 367 888 l 281 590 q 406 606 341 606 q 602 534 529 606 q 675 349 675 464 q 625 151 675 233 q 278 -14 527 -14 q 54 40 146 -14 l 54 151 q 288 82 165 82 q 483 147 411 82 q 555 329 555 212 q 505 464 555 414 q 367 514 455 514 z "},"6":{"ha":765,"x_min":90,"x_max":755,"o":"m 467 623 q 632 556 571 623 q 693 376 693 490 q 648 172 693 262 q 526 34 603 82 q 349 -14 448 -14 q 157 65 224 -14 q 90 287 90 143 q 132 570 90 430 q 242 807 173 710 q 631 1006 382 1006 q 755 990 705 1006 l 732 892 q 616 907 687 907 q 374 805 472 907 q 231 505 277 704 l 236 505 q 337 591 277 560 q 467 623 397 623 m 367 82 q 518 162 457 82 q 579 356 579 242 q 579 361 579 358 q 429 529 579 529 q 268 458 339 529 q 219 388 235 427 q 203 282 203 349 q 244 135 203 189 q 361 82 286 82 q 367 82 363 82 z "},"7":{"ha":765,"x_min":118,"x_max":777,"o":"m 639 890 l 151 890 l 172 991 l 777 991 l 758 897 l 240 0 l 118 0 l 639 890 z "},"8":{"ha":765,"x_min":65,"x_max":753,"o":"m 753 789 q 700 636 753 701 q 519 517 647 571 q 642 405 606 464 q 677 268 677 345 q 677 264 677 266 q 587 63 677 140 q 351 -14 497 -14 q 340 -14 346 -14 q 138 53 212 -14 q 65 235 65 120 q 130 409 65 335 q 330 533 195 482 q 239 630 267 579 q 211 747 211 681 q 211 754 211 751 q 293 934 211 861 q 496 1007 375 1007 q 503 1007 499 1007 q 686 948 620 1007 q 753 789 753 890 m 637 772 q 637 805 637 772 q 598 873 637 838 q 488 909 559 909 q 371 865 416 909 q 325 746 325 821 q 352 648 325 690 q 437 570 378 606 q 592 659 546 610 q 637 772 637 707 m 412 475 q 235 378 286 434 q 183 244 183 321 q 230 125 183 168 q 353 82 277 82 q 503 132 447 82 q 559 265 559 182 q 524 384 559 333 q 412 475 489 434 z "},"9":{"ha":765,"x_min":66,"x_max":724,"o":"m 364 370 q 187 437 249 370 q 125 632 125 504 q 169 823 125 736 q 290 957 212 909 q 467 1006 369 1006 q 656 927 589 1006 q 724 701 724 849 q 686 427 724 571 q 585 181 648 283 q 231 -14 465 -14 q 66 9 138 -14 l 66 117 q 233 85 158 85 q 455 180 370 85 q 583 479 540 276 l 576 479 q 486 399 541 428 q 364 370 431 370 m 463 909 q 299 833 361 909 q 237 636 237 757 q 275 507 237 551 q 385 463 312 463 q 553 537 491 463 q 597 615 584 574 q 611 717 611 656 q 571 857 611 805 q 463 909 531 909 z "}," ":{"ha":361,"x_min":0,"x_max":0,"o":""},"!":{"ha":359,"x_min":29,"x_max":376,"o":"m 191 273 l 117 273 q 236 991 163 560 l 376 991 l 191 273 m 29 53 q 56 134 29 104 q 129 164 83 164 q 179 145 160 164 q 197 85 197 126 q 171 12 197 43 q 100 -20 144 -20 q 48 -1 66 -20 q 29 53 29 18 z "},"\"":{"ha":536,"x_min":153,"x_max":566,"o":"m 225 633 l 153 633 l 201 991 l 329 991 l 225 633 m 461 633 l 389 633 l 437 991 l 566 991 l 461 633 z "},"#":{"ha":897,"x_min":43,"x_max":908,"o":"m 636 379 l 829 379 l 821 292 l 611 292 l 526 0 l 432 0 l 519 292 l 314 292 l 228 0 l 138 0 l 220 292 l 43 292 l 52 379 l 244 379 l 313 610 l 125 610 l 134 696 l 338 696 l 421 991 l 515 991 l 431 696 l 637 696 l 724 991 l 814 991 l 729 696 l 908 696 l 900 610 l 703 610 l 636 379 m 545 379 l 610 610 l 404 610 l 339 379 l 545 379 z "},"$":{"ha":765,"x_min":49,"x_max":726,"o":"m 639 334 q 562 155 639 224 q 353 72 486 87 l 319 -81 l 229 -81 l 262 71 q 49 119 130 80 l 49 224 q 169 180 108 195 q 281 165 230 165 l 347 472 q 211 556 254 505 q 168 684 168 606 q 242 857 168 791 q 444 933 315 922 l 471 1053 l 561 1053 l 534 932 q 726 880 643 924 l 684 789 q 515 838 601 831 l 452 539 q 595 454 554 501 q 639 334 639 407 m 272 685 q 296 618 272 648 q 368 571 320 589 l 425 838 q 312 791 351 830 q 272 685 272 751 m 530 325 q 507 391 530 363 q 431 440 484 419 l 372 170 q 488 220 445 179 q 530 325 530 262 z "},"%":{"ha":1101,"x_min":114,"x_max":1039,"o":"m 536 818 q 515 659 536 747 q 458 509 494 570 q 271 383 386 383 q 155 435 196 383 q 114 591 114 486 q 148 799 114 695 q 376 1006 217 1006 q 495 957 454 1006 q 536 818 536 909 m 260 0 l 157 0 l 893 991 l 996 991 l 260 0 m 368 921 q 287 878 323 921 q 230 750 251 834 q 208 586 208 665 q 281 469 208 469 q 394 573 351 469 q 429 691 416 624 q 441 808 441 758 q 368 921 441 921 m 1039 421 q 1017 261 1039 350 q 962 113 996 172 q 774 -14 889 -14 q 657 37 699 -14 q 616 193 616 88 q 650 401 616 298 q 879 608 720 608 q 998 560 958 608 q 1039 421 1039 512 m 871 524 q 789 479 825 524 q 732 352 753 435 q 711 189 711 269 q 783 72 711 72 q 862 115 827 72 q 921 250 897 159 q 945 411 945 342 q 871 524 945 524 z "},"&":{"ha":930,"x_min":45,"x_max":889,"o":"m 296 -14 q 113 52 182 -14 q 45 232 45 117 q 106 407 45 332 q 311 550 168 481 q 241 760 241 661 q 314 939 241 871 q 504 1007 386 1007 q 665 954 606 1007 q 724 810 724 900 q 696 705 724 756 q 621 625 677 671 q 539 573 588 600 q 452 526 491 547 l 640 262 q 775 463 726 336 l 889 463 q 697 183 821 302 l 835 0 l 699 0 l 619 113 q 465 16 540 46 q 296 -14 390 -14 m 500 914 q 389 873 429 914 q 350 755 350 833 q 406 599 350 677 q 535 673 496 645 q 612 802 612 732 q 583 884 612 854 q 500 914 554 914 m 155 240 q 200 124 155 168 q 319 81 245 81 q 434 103 378 81 q 566 187 489 126 l 358 481 q 233 402 268 433 q 155 240 155 334 z "},"'":{"ha":301,"x_min":153,"x_max":329,"o":"m 225 633 l 153 633 l 201 991 l 329 991 l 225 633 z "},"(":{"ha":396,"x_min":56,"x_max":504,"o":"m 155 -220 q 56 188 56 -39 q 137 610 56 414 q 397 991 218 806 l 504 991 q 167 186 167 622 q 244 -220 167 -43 l 155 -220 z "},")":{"ha":396,"x_min":-109,"x_max":339,"o":"m 240 991 q 339 583 339 809 q 256 159 339 356 q -3 -220 174 -37 l -109 -220 q 228 586 228 153 q 151 991 228 817 l 240 991 z "},"*":{"ha":766,"x_min":146,"x_max":782,"o":"m 496 777 l 782 789 l 777 682 l 510 714 l 632 454 l 519 419 l 443 694 l 268 461 l 189 543 l 399 736 l 146 810 l 183 914 l 435 789 l 463 1060 l 579 1036 l 496 777 z "},"+":{"ha":765,"x_min":86,"x_max":710,"o":"m 86 441 l 86 538 l 350 538 l 350 803 l 446 803 l 446 538 l 710 538 l 710 441 l 446 441 l 446 179 l 350 179 l 350 441 l 86 441 z "},",":{"ha":334,"x_min":-68,"x_max":203,"o":"m 197 161 l 203 146 q 20 -179 127 -12 l -68 -179 q 71 161 18 17 l 197 161 z "},"-":{"ha":433,"x_min":37,"x_max":386,"o":"m 61 425 l 386 425 l 363 318 l 37 318 l 61 425 z "},".":{"ha":351,"x_min":29,"x_max":197,"o":"m 29 50 q 57 134 29 103 q 132 164 84 164 q 180 146 162 164 q 197 86 197 128 q 170 12 197 44 q 97 -20 142 -20 q 47 -2 65 -20 q 29 50 29 16 z "},"/":{"ha":486,"x_min":-64,"x_max":606,"o":"m 54 0 l -64 0 l 488 991 l 606 991 l 54 0 z "},":":{"ha":351,"x_min":29,"x_max":306,"o":"m 138 648 q 165 732 138 701 q 240 762 192 762 q 306 692 306 762 q 278 610 306 642 q 205 579 250 579 q 156 597 174 579 q 138 648 138 616 m 29 50 q 57 134 29 103 q 132 164 84 164 q 180 146 162 164 q 197 86 197 128 q 170 12 197 44 q 97 -20 142 -20 q 47 -2 65 -20 q 29 50 29 16 z "},";":{"ha":351,"x_min":-68,"x_max":306,"o":"m 138 648 q 165 732 138 701 q 240 762 192 762 q 306 692 306 762 q 278 610 306 642 q 205 579 250 579 q 156 597 174 579 q 138 648 138 616 m 197 161 l 203 146 q 20 -179 127 -12 l -68 -179 q 71 161 18 17 l 197 161 z "},"<":{"ha":765,"x_min":82,"x_max":705,"o":"m 82 450 l 82 517 l 705 842 l 705 741 l 199 489 l 705 267 l 705 164 l 82 450 z "},"=":{"ha":765,"x_min":86,"x_max":710,"o":"m 86 676 l 710 676 l 710 582 l 86 582 l 86 676 m 86 397 l 710 397 l 710 301 l 86 301 l 86 397 z "},">":{"ha":765,"x_min":82,"x_max":705,"o":"m 587 489 l 82 741 l 82 842 l 705 517 l 705 450 l 82 164 l 82 267 l 587 489 z "},"?":{"ha":593,"x_min":107,"x_max":625,"o":"m 510 774 q 475 871 510 837 q 375 905 440 905 q 175 850 294 905 l 134 937 q 263 988 195 971 q 387 1006 331 1006 q 563 949 500 1006 q 625 787 625 892 q 581 633 625 704 q 439 491 537 564 q 313 382 341 418 q 268 273 283 343 l 176 273 q 225 418 191 362 q 342 540 260 475 q 452 634 425 605 q 510 774 510 699 m 107 50 q 134 134 107 103 q 210 164 161 164 q 258 146 240 164 q 275 93 275 128 q 248 12 275 43 q 175 -20 220 -20 q 125 -2 143 -20 q 107 50 107 16 z "},"@":{"ha":1177,"x_min":75,"x_max":1139,"o":"m 533 -126 q 198 -1 321 -126 q 75 342 75 124 q 161 672 75 519 q 394 907 248 824 q 724 990 541 990 q 730 990 727 990 q 1028 878 918 990 q 1139 583 1139 765 q 1139 578 1139 580 q 1101 358 1139 456 q 996 204 1064 260 q 846 149 928 149 q 701 273 712 149 l 696 273 q 498 149 621 149 q 376 200 420 149 q 332 349 332 251 q 377 534 332 448 q 505 669 423 620 q 682 718 587 718 q 769 710 727 718 q 871 677 810 702 q 837 548 860 637 q 798 405 813 460 q 783 317 783 351 q 783 311 783 314 q 852 232 783 232 q 948 277 905 232 q 1016 401 991 322 q 1042 567 1042 479 q 955 816 1042 730 q 709 903 868 903 q 429 830 549 903 q 241 630 308 758 q 174 347 174 502 q 271 63 174 164 q 549 -37 368 -37 q 833 21 681 -37 l 833 -65 q 533 -126 685 -126 m 668 636 q 550 599 604 636 q 465 496 496 562 q 433 359 433 430 q 455 260 433 289 q 522 232 477 232 q 707 446 648 232 l 754 621 q 668 636 711 636 z "},"A":{"ha":771,"x_min":-79,"x_max":705,"o":"m 215 315 l 49 0 l -79 0 l 463 991 l 581 991 l 705 0 l 590 0 l 551 315 l 215 315 m 539 421 l 515 624 q 496 861 498 748 q 441 744 471 804 q 272 421 411 684 l 539 421 z "},"B":{"ha":831,"x_min":58,"x_max":815,"o":"m 522 991 q 815 764 815 991 q 756 603 815 669 q 590 517 697 536 l 590 510 q 709 435 667 488 q 751 307 751 382 q 648 81 751 164 q 372 0 545 0 l 58 0 l 268 991 l 522 991 m 463 567 q 632 616 569 567 q 694 751 694 666 q 649 857 694 823 q 507 892 604 892 l 364 892 l 294 567 l 463 567 m 375 98 q 563 153 497 98 q 629 307 629 208 q 579 428 629 386 q 433 469 528 469 l 273 469 l 195 98 l 375 98 z "},"C":{"ha":812,"x_min":102,"x_max":875,"o":"m 639 903 q 427 837 520 903 q 280 643 334 770 q 225 367 225 515 q 291 164 225 240 q 473 89 357 89 q 692 127 568 89 l 692 26 q 580 -4 634 5 q 453 -14 526 -14 q 195 88 289 -14 q 102 365 102 189 q 174 693 102 541 q 366 926 245 846 q 639 1006 486 1006 q 875 951 772 1006 l 828 856 q 639 903 734 903 z "},"D":{"ha":925,"x_min":58,"x_max":882,"o":"m 500 991 q 784 890 687 991 q 882 595 882 789 q 810 282 882 418 q 607 73 739 146 q 297 0 475 0 l 58 0 l 268 991 l 500 991 m 304 100 q 545 161 442 100 q 704 336 648 223 q 760 595 760 449 q 690 817 760 742 q 485 892 620 892 l 364 892 l 195 100 l 304 100 z "},"E":{"ha":710,"x_min":58,"x_max":766,"o":"m 58 0 l 268 991 l 766 991 l 745 888 l 361 888 l 294 570 l 652 570 l 632 467 l 273 467 l 196 103 l 579 103 l 557 0 l 58 0 z "},"F":{"ha":656,"x_min":58,"x_max":766,"o":"m 58 0 l 268 991 l 766 991 l 746 888 l 361 888 l 286 526 l 644 526 l 623 422 l 264 422 l 175 0 l 58 0 z "},"G":{"ha":940,"x_min":102,"x_max":921,"o":"m 479 -14 q 201 84 300 -14 q 102 361 102 183 q 170 690 102 539 q 362 923 240 840 q 635 1006 484 1006 q 921 949 787 1006 l 876 846 q 632 903 746 903 q 424 834 518 903 q 277 641 330 765 q 225 366 225 517 q 294 163 225 237 q 489 89 364 89 q 665 115 593 89 l 730 416 l 534 416 l 557 519 l 868 519 l 764 37 q 479 -14 617 -14 z "},"H":{"ha":942,"x_min":58,"x_max":946,"o":"m 623 0 l 720 467 l 272 467 l 174 0 l 58 0 l 268 991 l 383 991 l 294 570 l 742 570 l 832 991 l 946 991 l 736 0 l 623 0 z "},"I":{"ha":379,"x_min":58,"x_max":383,"o":"m 269 991 l 383 991 l 172 0 l 58 0 l 269 991 z "},"J":{"ha":371,"x_min":-216,"x_max":383,"o":"m -113 -261 q -216 -244 -184 -261 l -212 -144 q -114 -158 -164 -158 q -2 -116 -46 -158 q 60 8 43 -73 l 268 991 l 383 991 l 174 -4 q -113 -261 120 -261 z "},"K":{"ha":774,"x_min":58,"x_max":897,"o":"m 701 0 l 575 0 q 478 237 546 74 q 376 489 411 401 l 258 400 l 174 0 l 58 0 l 268 991 l 383 991 l 281 510 l 755 991 l 897 991 l 464 559 l 701 0 z "},"L":{"ha":659,"x_min":58,"x_max":579,"o":"m 268 991 l 383 991 l 196 104 l 579 104 l 557 0 l 58 0 l 268 991 z "},"M":{"ha":1162,"x_min":57,"x_max":1166,"o":"m 346 879 l 340 879 q 320 736 334 821 q 296 610 305 652 l 167 0 l 57 0 l 267 991 l 432 991 l 533 175 l 539 175 l 986 991 l 1166 991 l 961 0 l 843 0 l 974 614 q 1038 880 1020 831 l 1034 880 l 547 0 l 458 0 l 346 879 z "},"N":{"ha":975,"x_min":57,"x_max":982,"o":"m 650 0 l 338 829 l 334 829 q 283 546 313 683 l 167 0 l 57 0 l 267 991 l 389 991 l 700 164 l 704 164 q 753 439 724 316 l 871 991 l 982 991 l 772 0 l 650 0 z "},"O":{"ha":1000,"x_min":102,"x_max":957,"o":"m 602 1007 q 862 902 768 1007 q 957 615 957 798 q 897 288 957 432 q 726 65 837 144 q 469 -14 615 -14 q 199 87 296 -14 q 102 371 102 190 q 167 699 102 552 q 345 927 232 846 q 602 1007 458 1007 m 271 645 q 225 381 225 522 q 291 165 225 241 q 467 89 357 89 q 656 154 576 89 q 785 343 737 220 q 833 610 833 467 q 770 829 833 753 q 596 904 706 904 q 403 836 487 904 q 271 645 319 768 z "},"P":{"ha":786,"x_min":58,"x_max":786,"o":"m 492 991 q 711 927 637 991 q 786 736 786 863 q 674 478 786 567 q 349 390 563 390 l 257 390 l 174 0 l 58 0 l 268 991 l 492 991 m 368 489 q 591 551 515 489 q 667 732 667 612 q 620 854 667 816 q 475 892 574 892 l 364 892 l 278 489 l 368 489 z "},"Q":{"ha":1000,"x_min":102,"x_max":957,"o":"m 469 -14 q 199 87 296 -14 q 102 371 102 190 q 167 699 102 552 q 345 927 232 846 q 602 1007 458 1007 q 862 902 768 1007 q 957 615 957 798 q 862 224 957 389 q 608 7 768 60 l 794 -236 l 646 -236 l 492 -12 l 480 -14 l 469 -14 m 788 347 q 833 611 833 469 q 770 829 833 753 q 596 904 706 904 q 403 836 487 904 q 271 645 319 768 q 225 381 225 522 q 291 165 225 241 q 468 89 357 89 q 661 157 579 89 q 788 347 743 224 z "},"R":{"ha":790,"x_min":58,"x_max":787,"o":"m 485 991 q 787 743 787 991 q 538 439 787 507 l 700 0 l 574 0 l 432 412 l 261 412 l 174 0 l 58 0 l 268 991 l 485 991 m 396 511 q 597 569 527 511 q 668 734 668 627 q 622 853 668 817 q 473 890 576 890 l 361 890 l 282 511 l 396 511 z "},"S":{"ha":697,"x_min":26,"x_max":718,"o":"m 471 903 q 325 856 380 903 q 269 728 269 808 q 280 665 269 692 q 316 616 292 639 q 414 551 341 593 q 548 458 513 491 q 619 288 619 389 q 524 65 619 144 q 256 -14 429 -14 q 26 29 117 -14 l 26 144 q 252 87 136 87 q 432 139 368 87 q 496 279 496 191 q 460 373 496 332 q 324 470 425 413 q 185 584 224 526 q 146 720 146 641 q 235 926 146 846 q 471 1006 324 1006 q 718 949 600 1006 l 673 847 q 573 888 629 873 q 471 903 518 903 z "},"T":{"ha":692,"x_min":126,"x_max":817,"o":"m 214 0 l 401 889 l 126 889 l 149 991 l 817 991 l 796 889 l 519 889 l 330 0 l 214 0 z "},"U":{"ha":939,"x_min":111,"x_max":954,"o":"m 815 336 q 681 72 778 157 q 424 -14 585 -14 q 188 56 264 -14 q 111 260 111 125 q 127 396 111 315 l 256 991 l 371 991 l 241 387 q 227 260 227 317 q 277 134 227 179 q 424 89 328 89 q 606 149 541 89 q 700 345 671 208 l 839 991 l 954 991 l 815 336 z "},"V":{"ha":761,"x_min":127,"x_max":889,"o":"m 322 134 l 325 134 q 435 363 368 233 l 760 991 l 889 991 l 359 0 l 237 0 l 127 991 l 243 991 l 309 361 q 322 134 322 224 z "},"W":{"ha":1183,"x_min":151,"x_max":1303,"o":"m 699 846 l 694 846 q 652 738 675 791 q 311 0 629 685 l 193 0 l 151 991 l 267 991 l 288 380 l 289 321 q 282 146 289 250 l 286 146 q 392 406 347 312 l 667 991 l 787 991 l 817 408 q 822 261 822 311 q 822 202 822 212 l 822 146 l 828 146 q 917 386 878 294 l 1179 991 l 1303 991 l 852 0 l 737 0 l 704 654 q 699 846 699 753 z "},"X":{"ha":721,"x_min":-71,"x_max":836,"o":"m 526 0 l 382 435 l 56 0 l -71 0 l 334 526 l 155 991 l 272 991 l 410 610 l 710 991 l 836 991 l 460 521 l 648 0 l 526 0 z "},"Y":{"ha":699,"x_min":127,"x_max":827,"o":"m 696 991 l 827 991 l 401 367 l 325 0 l 208 0 l 289 372 l 127 991 l 243 991 l 364 485 l 696 991 z "},"Z":{"ha":737,"x_min":-11,"x_max":794,"o":"m -11 0 l 8 93 l 635 886 l 191 886 l 212 991 l 794 991 l 777 897 l 150 104 l 623 104 l 600 0 l -11 0 z "},"[":{"ha":397,"x_min":-11,"x_max":510,"o":"m -11 -220 l 248 991 l 510 991 l 489 896 l 335 896 l 119 -123 l 273 -123 l 252 -220 l -11 -220 z "},"\\":{"ha":486,"x_min":150,"x_max":401,"o":"m 401 0 l 297 0 l 150 991 l 254 991 l 401 0 z "},"]":{"ha":397,"x_min":-102,"x_max":419,"o":"m 72 -123 l 289 896 l 135 896 l 155 991 l 419 991 l 161 -220 l -102 -220 l -81 -123 l 72 -123 z "},"^":{"ha":718,"x_min":36,"x_max":696,"o":"m 441 999 l 515 999 l 696 375 l 597 375 l 461 882 l 144 375 l 36 375 l 441 999 z "},"_":{"ha":547,"x_min":-127,"x_max":443,"o":"m -127 -220 l -107 -125 l 443 -125 l 422 -220 l -127 -220 z "},"`":{"ha":770,"x_min":390,"x_max":612,"o":"m 612 842 l 542 842 q 455 945 499 884 q 390 1050 410 1006 l 390 1064 l 513 1064 q 612 859 543 971 l 612 842 z "},"a":{"ha":785,"x_min":66,"x_max":760,"o":"m 268 -14 q 120 53 174 -14 q 66 237 66 120 q 114 498 66 377 q 247 688 162 619 q 433 757 332 757 q 545 723 496 757 q 621 627 593 690 l 628 627 l 673 743 l 760 743 l 602 0 l 511 0 l 529 142 l 524 142 q 268 -14 403 -14 m 183 235 q 215 120 183 159 q 308 81 246 81 q 435 143 370 81 q 541 307 500 206 q 582 509 582 407 q 544 620 582 578 q 440 661 507 661 q 313 603 374 661 q 218 445 252 545 q 183 235 183 345 z "},"b":{"ha":802,"x_min":40,"x_max":733,"o":"m 530 755 q 679 689 625 755 q 733 504 733 622 q 687 242 733 362 q 558 54 641 122 q 370 -14 475 -14 q 254 21 304 -14 q 179 115 204 55 l 172 115 l 125 0 l 40 0 l 264 1055 l 378 1055 q 320 783 334 849 q 273 600 306 718 l 279 600 q 530 755 402 755 m 496 661 q 363 597 431 661 q 256 435 296 532 q 216 235 216 338 q 254 120 216 160 q 361 81 292 81 q 488 136 430 81 q 581 292 545 191 q 616 507 616 393 q 496 661 616 661 z "},"c":{"ha":625,"x_min":66,"x_max":636,"o":"m 343 -14 q 139 59 212 -14 q 66 265 66 132 q 116 513 66 398 q 255 692 166 628 q 454 757 344 757 q 636 722 548 757 l 604 627 q 452 661 523 661 q 317 609 380 661 q 218 465 254 556 q 183 264 183 373 q 228 129 183 177 q 350 81 273 81 q 530 126 426 81 l 530 29 q 343 -14 446 -14 z "},"d":{"ha":802,"x_min":66,"x_max":827,"o":"m 267 -14 q 119 53 172 -14 q 66 237 66 119 q 115 503 66 382 q 247 689 163 623 q 433 755 330 755 q 624 627 565 755 l 631 627 q 661 812 642 732 l 714 1055 l 827 1055 l 603 0 l 509 0 l 524 142 l 518 142 q 390 22 450 57 q 267 -14 330 -14 m 304 81 q 436 144 368 81 q 544 307 504 208 q 583 507 583 406 q 547 622 583 583 q 441 661 510 661 q 313 605 372 661 q 218 448 254 548 q 183 235 183 348 q 304 81 183 81 z "},"e":{"ha":685,"x_min":66,"x_max":643,"o":"m 334 -14 q 138 61 209 -14 q 66 263 66 135 q 117 509 66 391 q 251 692 168 627 q 436 757 334 757 q 590 712 537 757 q 643 586 643 668 q 530 394 643 464 q 208 325 418 325 l 186 325 l 183 271 q 225 131 183 180 q 354 82 268 82 q 441 94 397 82 q 554 139 486 106 l 554 40 q 440 -2 487 9 q 334 -14 393 -14 m 211 419 q 448 459 366 419 q 530 576 530 500 q 505 637 530 614 q 428 660 479 660 q 296 596 358 660 q 203 419 235 532 l 211 419 z "},"f":{"ha":435,"x_min":-155,"x_max":610,"o":"m -71 -334 q -155 -319 -118 -334 l -155 -224 q -79 -239 -113 -239 q -1 -199 -30 -239 q 45 -77 27 -159 l 199 657 l 68 657 l 77 703 l 216 747 l 232 815 q 318 1006 264 951 q 482 1063 374 1063 q 547 1055 509 1063 q 610 1038 585 1048 l 581 950 q 488 970 528 970 q 396 937 428 970 q 346 817 365 904 l 329 743 l 490 743 l 473 657 l 313 657 l 155 -87 q 74 -274 129 -215 q -71 -334 20 -334 z "},"g":{"ha":696,"x_min":-86,"x_max":746,"o":"m 614 547 q 535 341 614 418 q 323 264 456 264 q 267 269 287 264 q 172 180 172 234 q 192 145 172 155 q 260 129 212 135 l 339 119 q 517 59 463 104 q 572 -72 572 15 q 473 -265 572 -197 q 195 -334 374 -334 q -12 -283 63 -334 q -86 -143 -86 -233 q -37 -19 -86 -71 q 121 69 13 33 q 68 151 68 97 q 101 230 68 196 q 199 294 134 264 q 128 359 155 317 q 102 457 102 402 q 182 673 102 588 q 390 757 264 757 q 494 743 441 757 l 746 743 l 729 671 l 586 654 q 614 547 614 612 m 334 343 q 456 405 408 343 q 504 553 504 467 q 504 558 504 555 q 474 643 504 614 q 389 672 444 672 q 384 672 387 672 q 296 644 336 672 q 234 568 256 616 q 212 465 212 520 q 212 461 212 463 q 242 374 212 404 q 328 343 273 343 q 334 343 331 343 m 192 31 q 67 -29 111 14 q 24 -129 24 -71 q 68 -216 24 -186 q 199 -245 113 -245 q 392 -202 323 -245 q 461 -81 461 -159 q 424 -14 461 -38 q 300 20 387 10 l 192 31 z "},"h":{"ha":802,"x_min":40,"x_max":722,"o":"m 607 561 q 507 661 607 661 q 334 570 414 661 q 222 321 255 479 l 154 0 l 40 0 l 264 1055 l 378 1055 q 355 950 370 1021 q 331 838 340 880 q 273 600 307 727 l 281 600 q 405 719 343 682 q 536 755 467 755 q 674 707 625 755 q 722 568 722 658 q 700 418 722 528 q 608 0 677 309 l 494 0 l 595 469 q 607 561 607 533 z "},"i":{"ha":353,"x_min":40,"x_max":368,"o":"m 294 869 q 280 869 294 869 q 248 886 265 869 q 231 937 231 903 q 252 995 231 971 q 309 1019 274 1019 q 368 958 368 1019 q 346 895 368 920 q 294 869 323 869 m 40 0 l 199 743 l 313 743 l 154 0 l 40 0 z "},"j":{"ha":353,"x_min":-175,"x_max":367,"o":"m 293 869 q 279 869 293 869 q 248 886 265 869 q 231 937 231 903 q 252 995 231 971 q 309 1019 274 1019 q 367 958 367 1019 q 344 895 367 920 q 293 869 321 869 m -92 -334 q -175 -319 -138 -334 l -175 -224 q -94 -239 -134 -239 q 20 -100 -9 -239 l 199 743 l 311 743 l 131 -110 q 53 -280 106 -226 q -92 -334 0 -334 z "},"k":{"ha":677,"x_min":39,"x_max":717,"o":"m 581 743 l 717 743 l 399 427 l 599 0 l 472 0 l 313 355 l 210 272 l 154 0 l 39 0 l 262 1055 l 378 1055 l 290 647 q 221 379 252 466 l 224 379 l 581 743 z "},"l":{"ha":353,"x_min":39,"x_max":378,"o":"m 39 0 l 264 1055 l 378 1055 l 153 0 l 39 0 z "},"m":{"ha":1211,"x_min":40,"x_max":1133,"o":"m 585 561 q 563 636 585 610 q 492 661 541 661 q 330 570 404 661 q 222 322 256 478 l 154 0 l 40 0 l 199 743 l 293 743 l 278 606 l 285 606 q 524 757 395 757 q 641 714 599 757 q 690 590 683 671 l 696 590 q 953 757 810 757 q 1086 710 1039 757 q 1133 576 1133 664 q 1118 456 1133 528 l 1021 0 l 905 0 l 1006 469 q 1019 568 1019 541 q 995 637 1019 612 q 922 661 971 661 q 921 661 922 661 q 763 572 838 661 q 659 339 688 484 l 586 0 l 472 0 l 572 469 q 585 561 585 533 z "},"n":{"ha":802,"x_min":40,"x_max":722,"o":"m 608 567 q 584 636 608 612 q 507 661 559 661 q 334 570 414 661 q 222 322 255 478 l 154 0 l 40 0 l 199 743 l 293 743 l 278 606 l 285 606 q 409 722 348 686 q 536 757 469 757 q 673 709 623 757 q 722 578 722 662 q 707 456 722 526 l 610 0 l 494 0 l 595 469 q 608 567 608 541 z "},"o":{"ha":779,"x_min":66,"x_max":714,"o":"m 436 753 q 640 676 565 753 q 714 469 714 600 q 665 226 714 339 q 533 51 616 113 q 345 -11 450 -11 q 141 65 215 -11 q 66 274 66 142 q 116 518 66 406 q 249 692 165 631 q 436 753 333 753 m 553 608 q 438 657 511 657 q 306 607 366 657 q 215 467 248 557 q 183 269 183 378 q 226 132 183 180 q 350 83 269 83 q 355 83 353 83 q 477 133 421 83 q 565 274 533 182 q 596 477 596 365 q 596 482 596 479 q 553 608 596 560 z "},"p":{"ha":802,"x_min":-29,"x_max":733,"o":"m 533 755 q 679 689 625 755 q 733 504 733 623 q 686 240 733 360 q 557 53 640 121 q 370 -14 474 -14 q 255 20 304 -14 q 178 115 205 54 l 171 115 l 168 90 q 161 45 167 80 q 83 -334 155 10 l -29 -334 l 199 743 l 293 743 l 275 602 l 281 602 q 533 755 402 755 m 496 661 q 363 597 431 661 q 256 435 296 532 q 216 235 216 338 q 254 120 216 160 q 361 81 292 81 q 488 136 430 81 q 581 292 545 191 q 616 507 616 393 q 496 661 616 661 z "},"q":{"ha":802,"x_min":66,"x_max":760,"o":"m 269 -14 q 120 52 174 -14 q 66 237 66 118 q 115 503 66 381 q 248 691 164 625 q 435 757 332 757 q 547 723 498 757 q 621 627 595 688 l 629 627 l 675 743 l 760 743 l 532 -334 l 419 -334 l 488 -8 q 526 142 494 24 l 521 142 q 396 24 457 61 q 269 -14 335 -14 m 304 81 q 433 143 367 81 q 541 303 500 205 q 582 507 582 401 q 545 620 582 579 q 440 661 508 661 q 313 604 373 661 q 219 447 254 548 q 183 235 183 346 q 304 81 183 81 z "},"r":{"ha":550,"x_min":40,"x_max":591,"o":"m 510 757 q 591 747 555 757 l 567 646 q 496 654 532 654 q 380 614 434 654 q 286 501 326 573 q 227 340 245 429 l 154 0 l 40 0 l 199 743 l 293 743 l 278 606 l 285 606 q 366 698 334 671 q 510 757 432 757 z "},"s":{"ha":595,"x_min":5,"x_max":567,"o":"m 343 660 q 244 631 281 660 q 208 554 208 602 q 232 489 208 517 q 330 420 256 463 q 435 349 405 378 q 498 211 498 292 q 423 46 498 105 q 212 -14 348 -14 q 5 33 98 -14 l 5 140 q 107 97 52 113 q 210 81 162 81 q 337 114 293 81 q 382 201 382 146 q 358 266 382 239 q 256 339 335 293 q 131 437 167 389 q 94 549 94 484 q 162 700 94 642 q 345 757 231 757 q 567 707 458 757 l 530 614 l 492 631 q 343 660 425 660 z "},"t":{"ha":450,"x_min":61,"x_max":496,"o":"m 205 248 q 193 154 193 189 q 213 100 193 120 q 269 79 233 79 q 366 97 304 79 l 366 9 q 309 -7 342 0 q 254 -14 277 -14 q 124 27 169 -14 q 79 147 79 68 q 92 249 79 192 l 178 657 l 61 657 l 71 707 l 196 760 l 281 914 l 347 914 l 310 743 l 496 743 l 478 657 l 293 657 l 205 248 z "},"u":{"ha":802,"x_min":77,"x_max":758,"o":"m 192 178 q 292 81 192 81 q 293 81 292 81 q 465 173 385 81 q 578 421 546 266 l 646 743 l 758 743 l 602 0 l 507 0 l 522 138 l 514 138 q 388 20 448 54 q 262 -14 328 -14 q 126 34 175 -14 q 77 168 77 81 q 92 285 77 212 l 191 743 l 306 743 l 204 272 q 192 178 192 212 z "},"v":{"ha":642,"x_min":66,"x_max":707,"o":"m 240 82 l 244 82 q 366 334 336 279 l 586 743 l 707 743 l 306 0 l 151 0 l 66 743 l 180 743 l 224 328 q 240 82 240 153 z "},"w":{"ha":996,"x_min":79,"x_max":1046,"o":"m 539 525 l 539 631 l 533 631 l 499 551 l 443 422 l 245 0 l 109 0 l 79 743 l 191 743 l 203 340 l 203 281 q 197 98 203 186 l 201 98 q 294 317 231 177 l 494 743 l 618 743 l 643 340 q 647 163 647 227 l 647 127 l 646 98 l 650 98 q 711 259 672 165 q 925 743 751 353 l 1046 743 l 703 0 l 564 0 l 542 408 q 539 525 539 465 z "},"x":{"ha":664,"x_min":-50,"x_max":699,"o":"m 82 0 l -50 0 l 272 383 l 110 743 l 225 743 l 343 464 l 567 743 l 699 743 l 390 378 l 561 0 l 447 0 l 317 294 l 82 0 z "},"y":{"ha":642,"x_min":-134,"x_max":707,"o":"m 250 89 l 254 89 q 315 228 279 150 q 366 330 351 307 l 586 743 l 707 743 l 235 -126 q 110 -288 172 -242 q -39 -334 48 -334 q -134 -319 -88 -334 l -134 -228 q -41 -240 -91 -240 q 49 -207 9 -240 q 127 -104 89 -174 l 179 -12 l 66 743 l 180 743 l 231 374 q 244 240 237 331 q 250 89 250 149 z "},"z":{"ha":616,"x_min":-20,"x_max":606,"o":"m -20 0 l -4 79 l 467 659 l 142 659 l 160 743 l 606 743 l 586 648 l 125 85 l 485 85 l 468 0 l -20 0 z "},"{":{"ha":485,"x_min":18,"x_max":553,"o":"m 315 -220 l 300 -220 q 152 -183 201 -220 q 102 -68 102 -147 q 111 8 102 -34 q 127 81 120 50 q 138 127 134 112 q 146 165 141 142 q 153 197 152 189 q 158 222 155 205 q 160 240 161 239 q 160 252 159 241 q 18 349 160 349 l 40 446 q 170 476 123 446 q 232 575 218 507 l 278 796 q 357 948 301 904 q 530 991 414 991 l 553 991 l 532 896 q 429 871 460 896 q 385 787 397 846 l 336 570 q 276 446 318 488 q 161 392 233 404 l 161 389 q 264 244 264 361 q 252 155 264 204 l 220 12 q 210 -59 210 -27 q 234 -107 210 -91 q 315 -123 259 -123 l 315 -220 z "},"|":{"ha":765,"x_min":367,"x_max":461,"o":"m 461 1055 l 461 -336 l 367 -336 l 367 1055 l 461 1055 z "},"}":{"ha":485,"x_min":-50,"x_max":478,"o":"m 193 991 q 344 955 293 991 q 395 840 395 918 q 380 745 395 808 l 347 596 q 336 521 336 552 q 478 424 336 424 l 456 326 q 325 296 372 326 q 264 197 278 266 l 218 -24 q 138 -177 194 -135 q -41 -220 81 -220 l -50 -220 l -50 -123 q 62 -99 27 -123 q 111 -16 98 -75 l 160 203 q 219 324 177 281 q 335 379 262 367 l 335 383 q 233 526 233 412 q 245 615 233 566 l 279 760 q 289 827 289 805 q 261 880 289 863 q 167 896 233 896 l 186 991 l 193 991 z "},"~":{"ha":765,"x_min":78,"x_max":729,"o":"m 564 401 q 380 446 479 401 q 298 476 328 468 q 234 484 269 484 q 155 459 199 484 q 78 401 111 435 l 78 504 q 243 578 144 578 q 329 568 289 578 q 442 527 369 559 q 570 496 515 496 q 651 518 607 496 q 729 578 694 541 l 729 476 q 564 401 661 401 z "},"¡":{"ha":359,"x_min":-9,"x_max":338,"o":"m 170 644 q 197 727 170 696 q 272 758 225 758 q 320 740 303 758 q 338 680 338 722 q 310 607 338 638 q 239 575 283 575 q 188 593 205 575 q 170 644 170 610 m 250 464 l 131 -253 l -9 -253 l 176 464 l 250 464 z "},"¢":{"ha":765,"x_min":153,"x_max":722,"o":"m 153 400 q 195 633 153 526 q 317 809 239 741 q 493 890 395 876 l 517 1006 l 600 1006 l 575 892 q 722 859 657 886 l 690 762 q 542 798 617 798 q 403 745 467 798 q 304 601 340 692 q 269 400 269 509 q 314 266 269 316 q 436 216 359 216 q 616 262 513 216 l 616 165 q 422 121 533 123 l 395 -14 l 310 -14 l 339 132 q 201 225 250 155 q 153 400 153 296 z "},"£":{"ha":765,"x_min":-16,"x_max":799,"o":"m 571 1004 q 799 946 696 1004 l 754 856 q 566 909 656 909 q 387 749 420 909 l 340 528 l 591 528 l 574 441 l 322 441 l 290 293 q 245 179 275 224 q 161 104 214 133 l 653 104 l 631 0 l -16 0 l 3 96 q 178 292 142 127 l 210 441 l 74 441 l 92 528 l 228 528 l 279 765 q 571 1004 330 1004 z "},"¥":{"ha":765,"x_min":86,"x_max":854,"o":"m 728 991 l 854 991 l 493 469 l 650 469 l 631 379 l 429 379 l 407 271 l 608 271 l 589 180 l 389 180 l 350 0 l 245 0 l 283 180 l 86 180 l 106 271 l 302 271 l 325 379 l 127 379 l 147 469 l 300 469 l 163 991 l 273 991 l 395 485 l 728 991 z "},"§":{"ha":675,"x_min":40,"x_max":676,"o":"m 239 83 q 377 114 329 83 q 425 201 425 144 q 392 261 425 233 q 288 321 359 289 q 156 410 193 363 q 118 522 118 457 q 279 730 118 659 q 199 866 199 779 q 269 1008 199 954 q 462 1061 338 1061 q 676 1015 586 1061 l 640 932 q 465 972 539 972 q 350 945 391 972 q 309 871 309 918 q 334 814 309 838 q 435 757 359 791 q 545 696 511 724 q 614 558 614 641 q 572 436 614 493 q 456 342 531 380 q 533 214 533 294 q 456 52 533 110 q 240 -5 379 -5 q 40 36 120 -5 l 40 136 q 131 99 75 115 q 239 83 186 83 m 349 685 q 257 626 294 668 q 221 536 221 583 q 255 457 221 489 q 390 382 290 425 q 477 455 445 412 q 509 541 509 498 q 475 614 509 584 q 349 685 442 645 z "},"¨":{"ha":770,"x_min":310,"x_max":679,"o":"m 367 878 q 354 878 367 878 q 326 893 341 878 q 310 937 310 908 q 329 989 310 966 q 379 1011 349 1011 q 432 957 432 1011 q 412 901 432 924 q 367 878 393 878 m 614 878 q 601 878 614 878 q 572 893 588 878 q 557 937 557 908 q 576 989 557 966 q 627 1011 595 1011 q 679 957 679 1011 q 659 901 679 924 q 614 878 640 878 z "},"©":{"ha":1156,"x_min":94,"x_max":1114,"o":"m 603 -14 q 534 -14 603 -14 q 345 56 464 -14 q 160 243 227 126 q 94 496 94 361 q 162 750 94 631 q 349 938 231 869 q 603 1006 468 1006 q 856 939 739 1006 q 1044 754 974 873 q 1114 497 1114 636 q 1045 240 1114 357 q 860 55 977 123 q 603 -14 743 -14 m 224 715 q 165 496 165 614 q 224 276 165 378 q 385 115 283 174 q 606 57 488 57 q 824 116 723 57 q 983 275 925 176 q 1043 495 1043 376 q 984 715 1043 614 q 824 875 925 816 q 605 935 724 935 q 385 876 486 935 q 224 715 285 817 m 629 718 q 500 660 545 718 q 454 496 454 601 q 629 272 454 272 q 772 301 686 272 l 772 218 q 699 193 731 201 q 625 186 666 186 q 424 267 495 186 q 353 493 353 348 q 427 721 353 638 q 631 804 502 804 q 799 764 719 804 l 758 682 q 629 718 685 718 z "},"ª":{"ha":465,"x_min":115,"x_max":529,"o":"m 379 623 q 315 557 349 581 q 231 534 281 534 q 149 575 182 534 q 115 694 115 615 q 143 847 115 773 q 222 962 172 920 q 338 1003 273 1003 q 441 933 415 1003 l 446 933 l 471 994 l 529 994 l 435 543 l 372 543 l 382 623 l 379 623 m 258 604 q 335 637 300 604 q 393 731 370 671 q 416 840 416 791 q 339 933 416 933 q 234 863 277 933 q 192 699 192 793 q 258 604 192 604 z "},"«":{"ha":650,"x_min":60,"x_max":635,"o":"m 325 650 l 378 595 l 176 372 l 293 110 l 216 77 l 60 376 l 60 396 l 325 650 m 576 642 l 635 595 l 443 347 l 550 110 l 473 77 l 328 346 l 328 367 l 576 642 z "},"¬":{"ha":765,"x_min":86,"x_max":710,"o":"m 710 179 l 615 179 l 615 441 l 86 441 l 86 538 l 710 538 l 710 179 z "},"®":{"ha":1156,"x_min":94,"x_max":1114,"o":"m 603 -14 q 534 -14 603 -14 q 345 56 464 -14 q 160 243 227 126 q 94 496 94 361 q 162 750 94 631 q 349 938 231 869 q 603 1006 468 1006 q 856 939 739 1006 q 1044 754 974 873 q 1114 497 1114 636 q 1045 240 1114 357 q 860 55 977 123 q 603 -14 743 -14 m 224 715 q 165 496 165 614 q 224 276 165 378 q 385 115 283 174 q 606 57 488 57 q 824 116 723 57 q 983 275 925 176 q 1043 495 1043 376 q 984 715 1043 614 q 824 875 925 816 q 605 935 724 935 q 385 876 486 935 q 224 715 285 817 m 437 794 l 593 794 q 756 751 703 794 q 810 621 810 709 q 778 525 810 568 q 688 458 745 482 l 842 197 l 741 197 l 600 436 l 524 436 l 524 197 l 437 197 l 437 794 m 524 517 l 586 517 q 718 618 718 517 q 687 690 718 669 q 585 711 655 711 l 524 711 l 524 517 z "},"¯":{"ha":530,"x_min":154,"x_max":710,"o":"m 154 1055 l 176 1145 l 710 1145 l 686 1055 l 154 1055 z "},"°":{"ha":595,"x_min":146,"x_max":568,"o":"m 507 646 q 476 615 507 646 q 357 585 446 585 q 207 646 268 585 q 146 795 146 708 q 208 944 146 882 q 357 1006 269 1006 q 361 1006 359 1006 q 463 978 414 1006 q 540 901 511 949 q 568 799 568 852 q 568 794 568 797 q 507 646 568 707 m 357 929 q 330 929 357 929 q 262 889 302 929 q 222 794 222 849 q 262 701 222 740 q 357 661 301 661 q 452 701 413 661 q 490 795 490 741 q 451 889 490 850 q 357 929 412 929 z "},"±":{"ha":765,"x_min":86,"x_max":710,"o":"m 86 436 l 86 532 l 350 532 l 350 798 l 446 798 l 446 532 l 710 532 l 710 436 l 446 436 l 446 174 l 350 174 l 350 436 l 86 436 m 86 96 l 710 96 l 710 0 l 86 0 l 86 96 z "},"´":{"ha":770,"x_min":361,"x_max":647,"o":"m 361 842 l 361 860 q 446 962 401 904 q 518 1064 490 1019 l 647 1064 l 647 1050 q 553 949 624 1019 q 432 842 483 878 l 361 842 z "},"¶":{"ha":909,"x_min":135,"x_max":818,"o":"m 741 -176 l 741 950 l 596 950 l 596 -176 l 518 -176 l 518 379 q 419 367 477 367 q 204 451 273 367 q 135 709 135 535 q 209 969 135 884 q 440 1055 283 1055 l 818 1055 l 818 -176 l 741 -176 z "},"·":{"ha":351,"x_min":115,"x_max":283,"o":"m 115 468 q 143 551 115 521 q 218 582 170 582 q 266 564 248 582 q 283 504 283 546 q 256 430 283 462 q 183 398 229 398 q 133 416 151 398 q 115 468 115 434 z "},"¸":{"ha":285,"x_min":-115,"x_max":143,"o":"m 143 -187 q 88 -294 143 -254 q -57 -334 33 -334 q -115 -328 -85 -334 l -115 -260 q -69 -264 -90 -264 q 49 -189 49 -264 q -45 -123 49 -136 l 24 0 l 96 0 l 54 -82 q 143 -187 143 -108 z "},"º":{"ha":467,"x_min":114,"x_max":505,"o":"m 505 827 q 445 616 505 698 q 282 534 385 534 q 160 582 205 534 q 114 712 114 630 q 142 862 114 795 q 222 966 171 929 q 347 1003 274 1003 q 463 958 420 1003 q 505 827 505 912 m 339 933 q 230 874 269 933 q 191 718 191 815 q 216 632 191 661 q 289 603 241 603 q 392 663 353 603 q 432 821 432 723 q 339 933 432 933 z "},"»":{"ha":650,"x_min":16,"x_max":591,"o":"m 74 86 l 16 134 l 207 378 l 100 618 l 176 652 l 323 379 l 323 358 l 74 86 m 325 78 l 272 134 l 473 353 l 357 618 l 433 652 l 591 349 l 591 329 l 325 78 z "},"¿":{"ha":593,"x_min":-3,"x_max":515,"o":"m 515 685 q 488 602 515 632 q 412 571 460 571 q 365 589 382 571 q 347 642 347 608 q 374 722 347 690 q 447 754 401 754 q 497 736 479 754 q 515 685 515 719 m 113 -39 q 148 -136 113 -102 q 248 -171 182 -171 q 447 -115 328 -171 l 489 -203 q 241 -271 362 -271 q 59 -214 121 -271 q -3 -53 -3 -157 q 42 102 -3 31 q 185 245 87 173 q 311 356 283 318 q 354 461 339 394 l 446 461 q 397 318 431 374 q 285 199 363 262 l 220 148 q 113 -39 113 62 z "},"À":{"ha":771,"x_min":-79,"x_max":705,"o":"m 585 1071 l 515 1071 q 428 1175 472 1114 q 363 1279 383 1236 l 363 1293 l 486 1293 q 585 1088 515 1200 l 585 1071 m 49 0 l -79 0 l 463 991 l 581 991 l 705 0 l 590 0 l 551 315 l 215 315 l 49 0 m 539 421 l 515 624 q 496 861 498 748 q 441 744 471 804 q 272 421 411 684 l 539 421 z "},"Á":{"ha":771,"x_min":-79,"x_max":747,"o":"m 460 1071 l 460 1089 q 545 1191 501 1133 q 618 1293 589 1249 l 747 1293 l 747 1279 q 653 1178 724 1249 q 532 1071 583 1107 l 460 1071 m 49 0 l -79 0 l 463 991 l 581 991 l 705 0 l 590 0 l 551 315 l 215 315 l 49 0 m 539 421 l 515 624 q 496 861 498 748 q 441 744 471 804 q 272 421 411 684 l 539 421 z "},"Â":{"ha":771,"x_min":-79,"x_max":732,"o":"m 732 1071 l 663 1071 q 553 1199 623 1104 q 389 1071 464 1120 l 315 1071 l 315 1089 q 454 1223 418 1183 q 510 1293 495 1267 l 617 1293 q 704 1134 643 1225 l 732 1089 l 732 1071 m 49 0 l -79 0 l 463 991 l 581 991 l 705 0 l 590 0 l 551 315 l 215 315 l 49 0 m 539 421 l 515 624 q 496 861 498 748 q 441 744 471 804 q 272 421 411 684 l 539 421 z "},"Ã":{"ha":771,"x_min":-79,"x_max":791,"o":"m 633 1072 q 567 1092 603 1072 q 497 1130 530 1111 q 438 1149 464 1149 q 394 1131 412 1149 q 361 1071 376 1112 l 293 1071 q 450 1246 332 1246 q 506 1234 476 1246 q 557 1207 536 1221 q 643 1168 614 1168 q 688 1185 671 1168 q 724 1247 705 1203 l 791 1247 q 633 1072 747 1072 m 49 0 l -79 0 l 463 991 l 581 991 l 705 0 l 590 0 l 551 315 l 215 315 l 49 0 m 539 421 l 515 624 q 496 861 498 748 q 441 744 471 804 q 272 421 411 684 l 539 421 z "},"Ä":{"ha":771,"x_min":-79,"x_max":724,"o":"m 412 1107 q 399 1107 412 1107 q 370 1122 386 1107 q 355 1166 355 1137 q 374 1218 355 1196 q 424 1240 393 1240 q 477 1186 477 1240 q 456 1130 477 1153 q 412 1107 437 1107 m 659 1107 q 646 1107 659 1107 q 617 1122 633 1107 q 602 1166 602 1137 q 621 1218 602 1196 q 671 1240 640 1240 q 724 1186 724 1240 q 703 1130 724 1153 q 659 1107 684 1107 m 49 0 l -79 0 l 463 991 l 581 991 l 705 0 l 590 0 l 551 315 l 215 315 l 49 0 m 539 421 l 515 624 q 496 861 498 748 q 441 744 471 804 q 272 421 411 684 l 539 421 z "},"Å":{"ha":771,"x_min":-79,"x_max":705,"o":"m 375 1074 q 417 1177 375 1137 q 526 1217 459 1217 q 632 1178 592 1217 q 672 1075 672 1140 q 650 991 672 1025 q 587 940 627 956 l 705 0 l 590 0 l 551 315 l 215 315 l 49 0 l -79 0 l 439 949 q 375 1074 375 987 m 602 1074 q 602 1092 602 1074 q 580 1131 602 1109 q 524 1152 559 1152 q 468 1130 490 1152 q 446 1073 446 1109 q 466 1016 446 1036 q 522 996 486 996 q 580 1017 559 996 q 602 1074 602 1038 m 539 421 l 515 624 q 496 861 498 748 q 441 744 471 804 q 272 421 411 684 l 539 421 z "},"Æ":{"ha":1135,"x_min":-81,"x_max":1192,"o":"m 482 0 l 549 315 l 252 315 l 53 0 l -81 0 l 555 991 l 1192 991 l 1169 888 l 786 888 l 718 570 l 1076 570 l 1057 468 l 699 468 l 621 103 l 1004 103 l 982 0 l 482 0 m 669 888 l 612 888 l 318 421 l 570 421 l 669 888 z "},"Ç":{"ha":812,"x_min":102,"x_max":875,"o":"m 639 903 q 427 837 520 903 q 280 643 334 770 q 225 367 225 515 q 291 164 225 240 q 473 89 357 89 q 692 127 568 89 l 692 26 q 581 -4 634 5 q 460 -14 528 -14 l 425 -82 q 514 -187 514 -108 q 459 -294 514 -254 q 314 -334 404 -334 q 256 -328 286 -334 l 256 -260 q 302 -264 281 -264 q 420 -189 420 -264 q 326 -123 420 -136 l 389 -9 q 195 87 270 7 q 102 365 102 189 q 174 693 102 541 q 366 926 245 846 q 639 1006 486 1006 q 875 951 772 1006 l 828 856 q 639 903 734 903 z "},"È":{"ha":710,"x_min":58,"x_max":766,"o":"m 609 1071 l 538 1071 q 451 1175 496 1114 q 387 1279 407 1236 l 387 1293 l 509 1293 q 609 1088 538 1200 l 609 1071 m 268 991 l 766 991 l 745 888 l 361 888 l 294 570 l 652 570 l 632 467 l 273 467 l 196 103 l 579 103 l 557 0 l 58 0 l 268 991 z "},"É":{"ha":710,"x_min":58,"x_max":766,"o":"m 446 1071 l 446 1089 q 530 1191 486 1133 q 603 1293 574 1249 l 732 1293 l 732 1279 q 638 1178 709 1249 q 517 1071 568 1107 l 446 1071 m 268 991 l 766 991 l 745 888 l 361 888 l 294 570 l 652 570 l 632 467 l 273 467 l 196 103 l 579 103 l 557 0 l 58 0 l 268 991 z "},"Ê":{"ha":710,"x_min":58,"x_max":766,"o":"m 735 1071 l 665 1071 q 556 1199 626 1104 q 392 1071 467 1120 l 318 1071 l 318 1089 q 456 1223 420 1183 q 513 1293 498 1267 l 620 1293 q 707 1134 646 1225 l 735 1089 l 735 1071 m 268 991 l 766 991 l 745 888 l 361 888 l 294 570 l 652 570 l 632 467 l 273 467 l 196 103 l 579 103 l 557 0 l 58 0 l 268 991 z "},"Ë":{"ha":710,"x_min":58,"x_max":766,"o":"m 412 1107 q 399 1107 412 1107 q 370 1122 386 1107 q 355 1166 355 1137 q 374 1218 355 1196 q 424 1240 393 1240 q 477 1186 477 1240 q 456 1130 477 1153 q 412 1107 437 1107 m 659 1107 q 646 1107 659 1107 q 617 1122 633 1107 q 602 1166 602 1137 q 621 1218 602 1196 q 671 1240 640 1240 q 724 1186 724 1240 q 703 1130 724 1153 q 659 1107 684 1107 m 268 991 l 766 991 l 745 888 l 361 888 l 294 570 l 652 570 l 632 467 l 273 467 l 196 103 l 579 103 l 557 0 l 58 0 l 268 991 z "},"Ì":{"ha":379,"x_min":58,"x_max":402,"o":"m 402 1071 l 332 1071 q 244 1175 289 1114 q 180 1279 200 1236 l 180 1293 l 302 1293 q 402 1088 332 1200 l 402 1071 m 383 991 l 172 0 l 58 0 l 269 991 l 383 991 z "},"Í":{"ha":379,"x_min":58,"x_max":566,"o":"m 279 1071 l 279 1089 q 364 1191 320 1133 q 437 1293 408 1249 l 566 1293 l 566 1279 q 472 1178 543 1249 q 351 1071 401 1107 l 279 1071 m 383 991 l 172 0 l 58 0 l 269 991 l 383 991 z "},"Î":{"ha":379,"x_min":58,"x_max":548,"o":"m 548 1071 l 478 1071 q 369 1199 439 1104 q 205 1071 279 1120 l 131 1071 l 131 1089 q 269 1223 233 1183 q 326 1293 311 1267 l 433 1293 q 519 1134 458 1225 l 548 1089 l 548 1071 m 383 991 l 172 0 l 58 0 l 269 991 l 383 991 z "},"Ï":{"ha":379,"x_min":58,"x_max":549,"o":"m 237 1107 q 224 1107 237 1107 q 195 1122 211 1107 q 180 1166 180 1137 q 199 1218 180 1196 q 249 1240 218 1240 q 302 1186 302 1240 q 281 1130 302 1153 q 237 1107 262 1107 m 484 1107 q 471 1107 484 1107 q 442 1122 458 1107 q 427 1166 427 1137 q 446 1218 427 1196 q 496 1240 465 1240 q 549 1186 549 1240 q 528 1130 549 1153 q 484 1107 509 1107 m 383 991 l 172 0 l 58 0 l 269 991 l 383 991 z "},"Ñ":{"ha":975,"x_min":57,"x_max":982,"o":"m 747 1072 q 681 1092 717 1072 q 611 1130 644 1111 q 552 1149 578 1149 q 508 1131 526 1149 q 475 1071 490 1112 l 407 1071 q 564 1246 446 1246 q 620 1234 590 1246 q 671 1207 650 1221 q 756 1168 728 1168 q 802 1185 785 1168 q 838 1247 819 1203 l 905 1247 q 747 1072 861 1072 m 338 829 l 334 829 q 283 546 313 683 l 167 0 l 57 0 l 267 991 l 389 991 l 700 164 l 704 164 q 753 439 724 316 l 871 991 l 982 991 l 772 0 l 650 0 l 338 829 z "},"Ò":{"ha":1000,"x_min":102,"x_max":957,"o":"m 683 1071 l 612 1071 q 525 1175 570 1114 q 460 1279 481 1236 l 460 1293 l 583 1293 q 683 1088 613 1200 l 683 1071 m 602 1007 q 862 902 768 1007 q 957 615 957 798 q 897 288 957 432 q 726 65 837 144 q 469 -14 615 -14 q 199 87 296 -14 q 102 371 102 190 q 167 699 102 552 q 345 927 232 846 q 602 1007 458 1007 m 271 645 q 225 381 225 522 q 291 165 225 241 q 467 89 357 89 q 656 154 576 89 q 785 343 737 220 q 833 610 833 467 q 770 829 833 753 q 596 904 706 904 q 403 836 487 904 q 271 645 319 768 z "},"Ó":{"ha":1000,"x_min":102,"x_max":957,"o":"m 557 1071 l 557 1089 q 642 1191 597 1133 q 714 1293 686 1249 l 843 1293 l 843 1279 q 749 1178 820 1249 q 628 1071 679 1107 l 557 1071 m 602 1007 q 862 902 768 1007 q 957 615 957 798 q 897 288 957 432 q 726 65 837 144 q 469 -14 615 -14 q 199 87 296 -14 q 102 371 102 190 q 167 699 102 552 q 345 927 232 846 q 602 1007 458 1007 m 271 645 q 225 381 225 522 q 291 165 225 241 q 467 89 357 89 q 656 154 576 89 q 785 343 737 220 q 833 610 833 467 q 770 829 833 753 q 596 904 706 904 q 403 836 487 904 q 271 645 319 768 z "},"Ô":{"ha":1000,"x_min":102,"x_max":957,"o":"m 832 1071 l 762 1071 q 653 1199 723 1104 q 489 1071 564 1120 l 415 1071 l 415 1089 q 553 1223 517 1183 q 610 1293 595 1267 l 717 1293 q 804 1134 743 1225 l 832 1089 l 832 1071 m 602 1007 q 862 902 768 1007 q 957 615 957 798 q 897 288 957 432 q 726 65 837 144 q 469 -14 615 -14 q 199 87 296 -14 q 102 371 102 190 q 167 699 102 552 q 345 927 232 846 q 602 1007 458 1007 m 271 645 q 225 381 225 522 q 291 165 225 241 q 467 89 357 89 q 656 154 576 89 q 785 343 737 220 q 833 610 833 467 q 770 829 833 753 q 596 904 706 904 q 403 836 487 904 q 271 645 319 768 z "},"Õ":{"ha":1000,"x_min":102,"x_max":957,"o":"m 724 1072 q 657 1092 693 1072 q 587 1130 621 1111 q 528 1149 554 1149 q 484 1131 502 1149 q 451 1071 467 1112 l 383 1071 q 540 1246 423 1246 q 596 1234 566 1246 q 647 1207 626 1221 q 733 1168 705 1168 q 778 1185 761 1168 q 814 1247 795 1203 l 882 1247 q 724 1072 837 1072 m 602 1007 q 862 902 768 1007 q 957 615 957 798 q 897 288 957 432 q 726 65 837 144 q 469 -14 615 -14 q 199 87 296 -14 q 102 371 102 190 q 167 699 102 552 q 345 927 232 846 q 602 1007 458 1007 m 271 645 q 225 381 225 522 q 291 165 225 241 q 467 89 357 89 q 656 154 576 89 q 785 343 737 220 q 833 610 833 467 q 770 829 833 753 q 596 904 706 904 q 403 836 487 904 q 271 645 319 768 z "},"Ö":{"ha":1000,"x_min":102,"x_max":957,"o":"m 507 1107 q 494 1107 507 1107 q 466 1122 481 1107 q 450 1166 450 1137 q 470 1218 450 1196 q 519 1240 489 1240 q 572 1186 572 1240 q 552 1130 572 1153 q 507 1107 533 1107 m 754 1107 q 741 1107 754 1107 q 713 1122 728 1107 q 697 1166 697 1137 q 716 1218 697 1196 q 767 1240 736 1240 q 819 1186 819 1240 q 799 1130 819 1153 q 754 1107 780 1107 m 602 1007 q 862 902 768 1007 q 957 615 957 798 q 897 288 957 432 q 726 65 837 144 q 469 -14 615 -14 q 199 87 296 -14 q 102 371 102 190 q 167 699 102 552 q 345 927 232 846 q 602 1007 458 1007 m 271 645 q 225 381 225 522 q 291 165 225 241 q 467 89 357 89 q 656 154 576 89 q 785 343 737 220 q 833 610 833 467 q 770 829 833 753 q 596 904 706 904 q 403 836 487 904 q 271 645 319 768 z "},"Ø":{"ha":1000,"x_min":81,"x_max":991,"o":"m 957 615 q 897 288 957 432 q 726 65 837 144 q 474 -14 615 -14 q 244 52 334 -14 l 157 -57 l 81 5 l 174 121 q 102 372 102 213 q 167 699 102 552 q 345 927 232 846 q 594 1007 458 1007 q 825 932 730 1007 l 914 1044 l 991 982 l 890 857 q 957 615 957 771 m 753 844 q 590 904 692 904 q 403 836 487 904 q 271 645 319 768 q 225 375 225 522 q 253 221 225 284 l 753 844 m 314 139 q 476 89 376 89 q 656 154 576 89 q 785 343 737 220 q 833 618 833 467 q 811 757 833 698 l 314 139 z "},"Ù":{"ha":939,"x_min":111,"x_max":954,"o":"m 672 1071 l 602 1071 q 514 1175 559 1114 q 450 1279 470 1236 l 450 1293 l 572 1293 q 672 1088 602 1200 l 672 1071 m 815 336 q 681 72 778 157 q 424 -14 585 -14 q 188 56 264 -14 q 111 260 111 125 q 127 396 111 315 l 256 991 l 371 991 l 241 387 q 227 260 227 317 q 277 134 227 179 q 424 89 328 89 q 606 149 541 89 q 700 345 671 208 l 839 991 l 954 991 l 815 336 z "},"Ú":{"ha":939,"x_min":111,"x_max":954,"o":"m 558 1071 l 558 1089 q 643 1191 599 1133 q 715 1293 687 1249 l 844 1293 l 844 1279 q 751 1178 821 1249 q 629 1071 680 1107 l 558 1071 m 815 336 q 681 72 778 157 q 424 -14 585 -14 q 188 56 264 -14 q 111 260 111 125 q 127 396 111 315 l 256 991 l 371 991 l 241 387 q 227 260 227 317 q 277 134 227 179 q 424 89 328 89 q 606 149 541 89 q 700 345 671 208 l 839 991 l 954 991 l 815 336 z "},"Û":{"ha":939,"x_min":111,"x_max":954,"o":"m 825 1071 l 755 1071 q 646 1199 716 1104 q 482 1071 557 1120 l 408 1071 l 408 1089 q 547 1223 511 1183 q 603 1293 588 1267 l 710 1293 q 797 1134 736 1225 l 825 1089 l 825 1071 m 815 336 q 681 72 778 157 q 424 -14 585 -14 q 188 56 264 -14 q 111 260 111 125 q 127 396 111 315 l 256 991 l 371 991 l 241 387 q 227 260 227 317 q 277 134 227 179 q 424 89 328 89 q 606 149 541 89 q 700 345 671 208 l 839 991 l 954 991 l 815 336 z "},"Ü":{"ha":939,"x_min":111,"x_max":954,"o":"m 493 1107 q 480 1107 493 1107 q 452 1122 467 1107 q 436 1166 436 1137 q 455 1218 436 1196 q 505 1240 475 1240 q 558 1186 558 1240 q 538 1130 558 1153 q 493 1107 519 1107 m 740 1107 q 727 1107 740 1107 q 699 1122 714 1107 q 683 1166 683 1137 q 702 1218 683 1196 q 753 1240 722 1240 q 805 1186 805 1240 q 785 1130 805 1153 q 740 1107 766 1107 m 815 336 q 681 72 778 157 q 424 -14 585 -14 q 188 56 264 -14 q 111 260 111 125 q 127 396 111 315 l 256 991 l 371 991 l 241 387 q 227 260 227 317 q 277 134 227 179 q 424 89 328 89 q 606 149 541 89 q 700 345 671 208 l 839 991 l 954 991 l 815 336 z "},"ß":{"ha":802,"x_min":-174,"x_max":754,"o":"m -90 -334 q -174 -319 -137 -334 l -174 -222 q -93 -237 -133 -237 q -25 -205 -54 -237 q 18 -98 3 -172 l 208 793 q 314 996 237 929 q 522 1063 391 1063 q 693 1015 632 1063 q 754 882 754 967 q 740 810 754 842 q 698 745 726 778 q 577 643 669 713 q 503 541 503 587 q 567 458 503 503 q 635 398 601 433 q 707 240 707 328 q 633 54 707 121 q 438 -14 559 -14 q 253 35 317 -14 l 253 143 q 333 98 288 115 q 421 81 379 81 q 544 120 498 81 q 590 228 590 160 q 560 316 590 279 q 500 372 547 332 q 416 456 439 419 q 393 532 393 494 q 439 652 393 603 q 524 724 461 677 q 599 783 578 761 q 643 873 643 829 q 607 943 643 918 q 511 968 572 968 q 386 926 431 968 q 321 796 340 884 l 135 -87 q 54 -274 109 -215 q -90 -334 -1 -334 z "},"à":{"ha":785,"x_min":66,"x_max":760,"o":"m 559 842 l 488 842 q 401 945 446 884 q 336 1050 357 1006 l 336 1064 l 459 1064 q 559 859 488 971 l 559 842 m 268 -14 q 120 53 174 -14 q 66 237 66 120 q 114 498 66 377 q 247 688 162 619 q 433 757 332 757 q 545 723 496 757 q 621 627 593 690 l 628 627 l 673 743 l 760 743 l 602 0 l 511 0 l 529 142 l 524 142 q 268 -14 403 -14 m 183 235 q 215 120 183 159 q 308 81 246 81 q 435 143 370 81 q 541 307 500 206 q 582 509 582 407 q 544 620 582 578 q 440 661 507 661 q 313 603 374 661 q 218 445 252 545 q 183 235 183 345 z "},"á":{"ha":785,"x_min":66,"x_max":760,"o":"m 407 842 l 407 860 q 492 962 448 904 q 564 1064 536 1019 l 693 1064 l 693 1050 q 600 949 670 1019 q 478 842 529 878 l 407 842 m 268 -14 q 120 53 174 -14 q 66 237 66 120 q 114 498 66 377 q 247 688 162 619 q 433 757 332 757 q 545 723 496 757 q 621 627 593 690 l 628 627 l 673 743 l 760 743 l 602 0 l 511 0 l 529 142 l 524 142 q 268 -14 403 -14 m 183 235 q 215 120 183 159 q 308 81 246 81 q 435 143 370 81 q 541 307 500 206 q 582 509 582 407 q 544 620 582 578 q 440 661 507 661 q 313 603 374 661 q 218 445 252 545 q 183 235 183 345 z "},"â":{"ha":785,"x_min":66,"x_max":760,"o":"m 682 842 l 612 842 q 503 970 572 875 q 338 842 413 890 l 264 842 l 264 860 q 403 994 367 954 q 459 1064 444 1038 l 566 1064 q 653 905 592 996 l 682 860 l 682 842 m 268 -14 q 120 53 174 -14 q 66 237 66 120 q 114 498 66 377 q 247 688 162 619 q 433 757 332 757 q 545 723 496 757 q 621 627 593 690 l 628 627 l 673 743 l 760 743 l 602 0 l 511 0 l 529 142 l 524 142 q 268 -14 403 -14 m 183 235 q 215 120 183 159 q 308 81 246 81 q 435 143 370 81 q 541 307 500 206 q 582 509 582 407 q 544 620 582 578 q 440 661 507 661 q 313 603 374 661 q 218 445 252 545 q 183 235 183 345 z "},"ã":{"ha":785,"x_min":66,"x_max":760,"o":"m 581 843 q 514 862 550 843 q 444 901 477 882 q 385 920 411 920 q 341 901 359 920 q 308 842 323 883 l 240 842 q 397 1017 279 1017 q 453 1004 423 1017 q 505 978 483 992 q 590 939 562 939 q 635 956 618 939 q 671 1018 652 974 l 739 1018 q 581 843 694 843 m 268 -14 q 120 53 174 -14 q 66 237 66 120 q 114 498 66 377 q 247 688 162 619 q 433 757 332 757 q 545 723 496 757 q 621 627 593 690 l 628 627 l 673 743 l 760 743 l 602 0 l 511 0 l 529 142 l 524 142 q 268 -14 403 -14 m 183 235 q 215 120 183 159 q 308 81 246 81 q 435 143 370 81 q 541 307 500 206 q 582 509 582 407 q 544 620 582 578 q 440 661 507 661 q 313 603 374 661 q 218 445 252 545 q 183 235 183 345 z "},"ä":{"ha":785,"x_min":66,"x_max":760,"o":"m 365 878 q 352 878 365 878 q 323 893 339 878 q 308 937 308 908 q 327 989 308 966 q 377 1011 347 1011 q 430 957 430 1011 q 410 901 430 924 q 365 878 391 878 m 612 878 q 599 878 612 878 q 570 893 586 878 q 555 937 555 908 q 574 989 555 966 q 625 1011 593 1011 q 677 957 677 1011 q 657 901 677 924 q 612 878 637 878 m 268 -14 q 120 53 174 -14 q 66 237 66 120 q 114 498 66 377 q 247 688 162 619 q 433 757 332 757 q 545 723 496 757 q 621 627 593 690 l 628 627 l 673 743 l 760 743 l 602 0 l 511 0 l 529 142 l 524 142 q 268 -14 403 -14 m 183 235 q 215 120 183 159 q 308 81 246 81 q 435 143 370 81 q 541 307 500 206 q 582 509 582 407 q 544 620 582 578 q 440 661 507 661 q 313 603 374 661 q 218 445 252 545 q 183 235 183 345 z "},"å":{"ha":785,"x_min":66,"x_max":760,"o":"m 498 1129 q 532 1129 498 1129 q 605 1091 565 1129 q 645 986 645 1053 q 604 881 645 920 q 496 842 564 842 q 388 881 428 842 q 348 984 348 920 q 390 1089 348 1049 q 498 1129 432 1129 m 553 929 q 564 940 553 929 q 574 986 574 950 q 553 1043 574 1022 q 497 1064 532 1064 q 440 1043 463 1064 q 418 985 418 1021 q 438 928 418 949 q 495 908 458 908 q 553 929 532 908 m 268 -14 q 120 53 174 -14 q 66 237 66 120 q 114 498 66 377 q 247 688 162 619 q 433 757 332 757 q 545 723 496 757 q 621 627 593 690 l 628 627 l 673 743 l 760 743 l 602 0 l 511 0 l 529 142 l 524 142 q 268 -14 403 -14 m 183 235 q 215 120 183 159 q 308 81 246 81 q 435 143 370 81 q 541 307 500 206 q 582 509 582 407 q 544 620 582 578 q 440 661 507 661 q 313 603 374 661 q 218 445 252 545 q 183 235 183 345 z "},"æ":{"ha":1132,"x_min":66,"x_max":1101,"o":"m 790 -14 q 661 14 715 -14 q 579 94 606 41 l 558 0 l 481 0 l 498 142 l 493 142 q 363 20 419 53 q 243 -14 307 -14 q 113 54 160 -14 q 66 236 66 121 q 114 498 66 377 q 244 688 162 618 q 422 757 326 757 q 590 627 536 757 l 597 627 l 643 743 l 717 743 l 696 644 q 921 757 779 757 q 1051 711 1001 757 q 1101 586 1101 665 q 988 394 1101 463 q 668 325 875 325 l 642 325 l 639 271 q 682 131 639 180 q 812 82 725 82 q 891 93 850 82 q 1013 139 932 104 l 1013 37 q 790 -14 902 -14 m 279 81 q 408 142 345 81 q 511 305 471 204 q 551 509 551 406 q 520 620 551 578 q 437 661 490 661 q 311 603 370 661 q 217 445 251 544 q 183 236 183 346 q 208 120 183 159 q 279 81 233 81 m 669 419 q 906 459 823 419 q 989 574 989 498 q 965 637 989 615 q 899 660 941 660 q 755 595 820 660 q 660 419 691 531 l 669 419 z "},"ç":{"ha":625,"x_min":66,"x_max":636,"o":"m 604 627 q 452 661 523 661 q 317 609 380 661 q 218 465 254 556 q 183 264 183 373 q 228 129 183 177 q 350 81 273 81 q 530 126 426 81 l 530 29 q 347 -14 448 -12 l 313 -82 q 401 -187 401 -108 q 346 -294 401 -254 q 201 -334 291 -334 q 143 -328 174 -334 l 143 -260 q 189 -264 168 -264 q 307 -189 307 -264 q 214 -123 307 -136 l 277 -8 q 139 59 192 6 q 66 265 66 132 q 116 513 66 398 q 255 692 166 628 q 454 757 344 757 q 636 722 548 757 l 604 627 z "},"è":{"ha":685,"x_min":66,"x_max":643,"o":"m 527 842 l 456 842 q 369 945 414 884 q 304 1050 325 1006 l 304 1064 l 427 1064 q 527 859 457 971 l 527 842 m 334 -14 q 138 61 209 -14 q 66 263 66 135 q 117 509 66 391 q 251 692 168 627 q 436 757 334 757 q 590 712 537 757 q 643 586 643 668 q 530 394 643 464 q 208 325 418 325 l 186 325 l 183 271 q 225 131 183 180 q 354 82 268 82 q 441 94 397 82 q 554 139 486 106 l 554 40 q 440 -2 487 9 q 334 -14 393 -14 m 211 419 q 448 459 366 419 q 530 576 530 500 q 505 637 530 614 q 428 660 479 660 q 296 596 358 660 q 203 419 235 532 l 211 419 z "},"é":{"ha":685,"x_min":66,"x_max":683,"o":"m 397 842 l 397 860 q 481 962 437 904 q 554 1064 526 1019 l 683 1064 l 683 1050 q 589 949 660 1019 q 468 842 519 878 l 397 842 m 334 -14 q 138 61 209 -14 q 66 263 66 135 q 117 509 66 391 q 251 692 168 627 q 436 757 334 757 q 590 712 537 757 q 643 586 643 668 q 530 394 643 464 q 208 325 418 325 l 186 325 l 183 271 q 225 131 183 180 q 354 82 268 82 q 441 94 397 82 q 554 139 486 106 l 554 40 q 440 -2 487 9 q 334 -14 393 -14 m 211 419 q 448 459 366 419 q 530 576 530 500 q 505 637 530 614 q 428 660 479 660 q 296 596 358 660 q 203 419 235 532 l 211 419 z "},"ê":{"ha":685,"x_min":66,"x_max":655,"o":"m 655 842 l 585 842 q 476 970 546 875 q 312 842 387 890 l 238 842 l 238 860 q 376 994 340 954 q 433 1064 418 1038 l 540 1064 q 627 905 566 996 l 655 860 l 655 842 m 334 -14 q 138 61 209 -14 q 66 263 66 135 q 117 509 66 391 q 251 692 168 627 q 436 757 334 757 q 590 712 537 757 q 643 586 643 668 q 530 394 643 464 q 208 325 418 325 l 186 325 l 183 271 q 225 131 183 180 q 354 82 268 82 q 441 94 397 82 q 554 139 486 106 l 554 40 q 440 -2 487 9 q 334 -14 393 -14 m 211 419 q 448 459 366 419 q 530 576 530 500 q 505 637 530 614 q 428 660 479 660 q 296 596 358 660 q 203 419 235 532 l 211 419 z "},"ë":{"ha":685,"x_min":66,"x_max":649,"o":"m 337 878 q 324 878 337 878 q 296 893 311 878 q 280 937 280 908 q 299 989 280 966 q 349 1011 319 1011 q 402 957 402 1011 q 382 901 402 924 q 337 878 363 878 m 584 878 q 571 878 584 878 q 543 893 558 878 q 527 937 527 908 q 546 989 527 966 q 597 1011 566 1011 q 649 957 649 1011 q 629 901 649 924 q 584 878 610 878 m 334 -14 q 138 61 209 -14 q 66 263 66 135 q 117 509 66 391 q 251 692 168 627 q 436 757 334 757 q 590 712 537 757 q 643 586 643 668 q 530 394 643 464 q 208 325 418 325 l 186 325 l 183 271 q 225 131 183 180 q 354 82 268 82 q 441 94 397 82 q 554 139 486 106 l 554 40 q 440 -2 487 9 q 334 -14 393 -14 m 211 419 q 448 459 366 419 q 530 576 530 500 q 505 637 530 614 q 428 660 479 660 q 296 596 358 660 q 203 419 235 532 l 211 419 z "},"ì":{"ha":353,"x_min":40,"x_max":334,"o":"m 334 842 l 263 842 q 176 945 220 884 q 111 1050 132 1006 l 111 1064 l 234 1064 q 334 859 263 971 l 334 842 m 40 0 l 199 743 l 313 743 l 154 0 l 40 0 z "},"í":{"ha":353,"x_min":40,"x_max":506,"o":"m 220 842 l 220 860 q 304 962 260 904 q 377 1064 349 1019 l 506 1064 l 506 1050 q 412 949 483 1019 q 291 842 342 878 l 220 842 m 199 743 l 313 743 l 154 0 l 40 0 l 199 743 z "},"î":{"ha":353,"x_min":40,"x_max":480,"o":"m 480 842 l 410 842 q 301 970 371 875 q 137 842 212 890 l 63 842 l 63 860 q 201 994 165 954 q 258 1064 243 1038 l 365 1064 q 452 905 391 996 l 480 860 l 480 842 m 199 743 l 313 743 l 154 0 l 40 0 l 199 743 z "},"ï":{"ha":353,"x_min":40,"x_max":478,"o":"m 166 878 q 153 878 166 878 q 125 893 140 878 q 109 937 109 908 q 129 989 109 966 q 178 1011 148 1011 q 231 957 231 1011 q 212 901 231 924 q 166 878 192 878 m 413 878 q 400 878 413 878 q 372 893 387 878 q 356 937 356 908 q 375 989 356 966 q 426 1011 395 1011 q 478 957 478 1011 q 458 901 478 924 q 413 878 439 878 m 199 743 l 313 743 l 154 0 l 40 0 l 199 743 z "},"ñ":{"ha":802,"x_min":40,"x_max":749,"o":"m 591 843 q 524 862 560 843 q 454 901 488 882 q 395 920 421 920 q 351 901 369 920 q 318 842 334 883 l 250 842 q 407 1017 290 1017 q 463 1004 433 1017 q 514 978 493 992 q 600 939 572 939 q 645 956 628 939 q 681 1018 663 974 l 749 1018 q 591 843 704 843 m 608 567 q 584 636 608 612 q 507 661 559 661 q 334 570 414 661 q 222 322 255 478 l 154 0 l 40 0 l 199 743 l 293 743 l 278 606 l 285 606 q 409 722 348 686 q 536 757 469 757 q 673 709 623 757 q 722 578 722 662 q 707 456 722 526 l 610 0 l 494 0 l 595 469 q 608 567 608 541 z "},"ò":{"ha":779,"x_min":66,"x_max":714,"o":"m 541 842 l 471 842 q 384 945 428 884 q 319 1050 339 1006 l 319 1064 l 441 1064 q 541 859 471 971 l 541 842 m 436 753 q 640 676 565 753 q 714 469 714 600 q 665 226 714 339 q 533 51 616 113 q 345 -11 450 -11 q 141 65 215 -11 q 66 274 66 142 q 116 518 66 406 q 249 692 165 631 q 436 753 333 753 m 553 608 q 438 657 511 657 q 306 607 366 657 q 215 467 248 557 q 183 269 183 378 q 226 132 183 180 q 350 83 269 83 q 355 83 353 83 q 477 133 421 83 q 565 274 533 182 q 596 477 596 365 q 596 482 596 479 q 553 608 596 560 z "},"ó":{"ha":779,"x_min":66,"x_max":714,"o":"m 399 842 l 399 860 q 484 962 440 904 q 557 1064 528 1019 l 686 1064 l 686 1050 q 592 949 663 1019 q 471 842 522 878 l 399 842 m 436 753 q 640 676 565 753 q 714 469 714 600 q 665 226 714 339 q 533 51 616 113 q 345 -11 450 -11 q 141 65 215 -11 q 66 274 66 142 q 116 518 66 406 q 249 692 165 631 q 436 753 333 753 m 553 608 q 438 657 511 657 q 306 607 366 657 q 215 467 248 557 q 183 269 183 378 q 226 132 183 180 q 350 83 269 83 q 355 83 353 83 q 477 133 421 83 q 565 274 533 182 q 596 477 596 365 q 596 482 596 479 q 553 608 596 560 z "},"ô":{"ha":779,"x_min":66,"x_max":714,"o":"m 676 842 l 606 842 q 497 970 567 875 q 333 842 408 890 l 259 842 l 259 860 q 397 994 361 954 q 454 1064 439 1038 l 561 1064 q 648 905 587 996 l 676 860 l 676 842 m 436 753 q 640 676 565 753 q 714 469 714 600 q 665 226 714 339 q 533 51 616 113 q 345 -11 450 -11 q 141 65 215 -11 q 66 274 66 142 q 116 518 66 406 q 249 692 165 631 q 436 753 333 753 m 553 608 q 438 657 511 657 q 306 607 366 657 q 215 467 248 557 q 183 269 183 378 q 226 132 183 180 q 350 83 269 83 q 355 83 353 83 q 477 133 421 83 q 565 274 533 182 q 596 477 596 365 q 596 482 596 479 q 553 608 596 560 z "},"õ":{"ha":779,"x_min":66,"x_max":730,"o":"m 572 843 q 506 862 542 843 q 436 901 469 882 q 377 920 403 920 q 333 901 351 920 q 300 842 315 883 l 232 842 q 389 1017 271 1017 q 445 1004 415 1017 q 496 978 475 992 q 582 939 553 939 q 627 956 610 939 q 663 1018 644 974 l 730 1018 q 572 843 686 843 m 436 753 q 640 676 565 753 q 714 469 714 600 q 665 226 714 339 q 533 51 616 113 q 345 -11 450 -11 q 141 65 215 -11 q 66 274 66 142 q 116 518 66 406 q 249 692 165 631 q 436 753 333 753 m 553 608 q 438 657 511 657 q 306 607 366 657 q 215 467 248 557 q 183 269 183 378 q 226 132 183 180 q 350 83 269 83 q 355 83 353 83 q 477 133 421 83 q 565 274 533 182 q 596 477 596 365 q 596 482 596 479 q 553 608 596 560 z "},"ö":{"ha":779,"x_min":66,"x_max":714,"o":"m 351 878 q 338 878 351 878 q 309 893 325 878 q 294 937 294 908 q 313 989 294 966 q 363 1011 332 1011 q 416 957 416 1011 q 396 901 416 924 q 351 878 376 878 m 597 878 q 585 878 597 878 q 556 893 572 878 q 541 937 541 908 q 560 989 541 966 q 610 1011 579 1011 q 663 957 663 1011 q 643 901 663 924 q 597 878 623 878 m 436 753 q 640 676 565 753 q 714 469 714 600 q 665 226 714 339 q 533 51 616 113 q 345 -11 450 -11 q 141 65 215 -11 q 66 274 66 142 q 116 518 66 406 q 249 692 165 631 q 436 753 333 753 m 553 608 q 438 657 511 657 q 306 607 366 657 q 215 467 248 557 q 183 269 183 378 q 226 132 183 180 q 350 83 269 83 q 355 83 353 83 q 477 133 421 83 q 565 274 533 182 q 596 477 596 365 q 596 482 596 479 q 553 608 596 560 z "},"÷":{"ha":765,"x_min":86,"x_max":710,"o":"m 322 726 q 397 808 322 808 q 454 787 434 808 q 473 727 473 766 q 453 666 473 688 q 397 644 433 644 q 342 665 362 644 q 322 726 322 686 m 86 538 l 710 538 l 710 441 l 86 441 l 86 538 m 322 253 q 397 335 322 335 q 454 314 434 335 q 473 254 473 293 q 453 193 473 214 q 397 171 433 171 q 342 192 362 171 q 322 253 322 213 z "},"ø":{"ha":779,"x_min":41,"x_max":749,"o":"m 668 653 q 710 468 710 587 q 663 234 710 349 q 533 54 616 118 q 349 -11 450 -11 q 179 33 248 -11 l 113 -52 l 41 4 l 115 96 q 69 275 69 166 q 119 520 69 408 q 251 693 169 633 q 434 753 334 753 q 607 707 534 753 l 677 794 l 749 741 l 668 653 m 542 627 q 435 659 505 659 q 306 609 366 659 q 213 471 246 559 q 179 282 179 384 q 191 189 179 220 l 542 627 m 354 82 q 478 130 420 82 q 568 266 535 178 q 600 458 600 353 q 600 467 600 463 q 591 547 600 525 l 243 113 q 350 82 281 82 q 354 82 352 82 z "},"ù":{"ha":802,"x_min":77,"x_max":758,"o":"m 543 842 l 472 842 q 385 945 429 884 q 320 1050 340 1006 l 320 1064 l 443 1064 q 543 859 472 971 l 543 842 m 192 178 q 292 81 192 81 q 293 81 292 81 q 465 173 385 81 q 578 421 546 266 l 646 743 l 758 743 l 602 0 l 507 0 l 522 138 l 514 138 q 388 20 448 54 q 262 -14 328 -14 q 126 34 175 -14 q 77 168 77 81 q 92 285 77 212 l 191 743 l 306 743 l 204 272 q 192 178 192 212 z "},"ú":{"ha":802,"x_min":77,"x_max":758,"o":"m 431 842 l 431 860 q 516 962 472 904 q 589 1064 560 1019 l 718 1064 l 718 1050 q 624 949 694 1019 q 503 842 553 878 l 431 842 m 192 178 q 292 81 192 81 q 293 81 292 81 q 465 173 385 81 q 578 421 546 266 l 646 743 l 758 743 l 602 0 l 507 0 l 522 138 l 514 138 q 388 20 448 54 q 262 -14 328 -14 q 126 34 175 -14 q 77 168 77 81 q 92 285 77 212 l 191 743 l 306 743 l 204 272 q 192 178 192 212 z "},"û":{"ha":802,"x_min":77,"x_max":758,"o":"m 694 842 l 625 842 q 515 970 585 875 q 351 842 426 890 l 277 842 l 277 860 q 416 994 380 954 q 472 1064 457 1038 l 579 1064 q 666 905 605 996 l 694 860 l 694 842 m 192 178 q 292 81 192 81 q 293 81 292 81 q 465 173 385 81 q 578 421 546 266 l 646 743 l 758 743 l 602 0 l 507 0 l 522 138 l 514 138 q 388 20 448 54 q 262 -14 328 -14 q 126 34 175 -14 q 77 168 77 81 q 92 285 77 212 l 191 743 l 306 743 l 204 272 q 192 178 192 212 z "},"ü":{"ha":802,"x_min":77,"x_max":758,"o":"m 367 878 q 354 878 367 878 q 326 893 341 878 q 310 937 310 908 q 329 989 310 966 q 379 1011 349 1011 q 432 957 432 1011 q 412 901 432 924 q 367 878 393 878 m 614 878 q 601 878 614 878 q 572 893 588 878 q 557 937 557 908 q 576 989 557 966 q 627 1011 595 1011 q 679 957 679 1011 q 659 901 679 924 q 614 878 640 878 m 192 178 q 292 81 192 81 q 293 81 292 81 q 465 173 385 81 q 578 421 546 266 l 646 743 l 758 743 l 602 0 l 507 0 l 522 138 l 514 138 q 388 20 448 54 q 262 -14 328 -14 q 126 34 175 -14 q 77 168 77 81 q 92 285 77 212 l 191 743 l 306 743 l 204 272 q 192 178 192 212 z "},"ÿ":{"ha":642,"x_min":-134,"x_max":707,"o":"m 284 878 q 271 878 284 878 q 243 893 258 878 q 227 937 227 908 q 247 989 227 966 q 296 1011 266 1011 q 349 957 349 1011 q 330 901 349 924 q 284 878 310 878 m 531 878 q 518 878 531 878 q 490 893 505 878 q 474 937 474 908 q 493 989 474 966 q 544 1011 513 1011 q 596 957 596 1011 q 576 901 596 924 q 531 878 557 878 m 250 89 l 254 89 q 315 228 279 150 q 366 330 351 307 l 586 743 l 707 743 l 235 -126 q 110 -288 172 -242 q -39 -334 48 -334 q -134 -319 -88 -334 l -134 -228 q -41 -240 -91 -240 q 49 -207 9 -240 q 127 -104 89 -174 l 179 -12 l 66 743 l 180 743 l 231 374 q 244 240 237 331 q 250 89 250 149 z "},"ı":{"ha":353,"x_min":40,"x_max":313,"o":"m 40 0 l 199 743 l 313 743 l 154 0 l 40 0 z "},"Œ":{"ha":1187,"x_min":102,"x_max":1243,"o":"m 469 -14 q 199 87 296 -14 q 102 371 102 190 q 167 699 102 552 q 345 927 232 846 q 602 1007 458 1007 q 762 991 703 1007 l 1243 991 l 1222 888 l 839 888 l 771 570 l 1129 570 l 1108 468 l 750 468 l 672 103 l 1055 103 l 1034 0 l 576 0 q 469 -14 522 -14 m 593 904 q 403 836 487 904 q 271 645 319 768 q 225 381 225 522 q 291 165 225 241 q 472 89 357 89 q 555 102 519 89 l 722 889 q 593 904 671 904 z "},"œ":{"ha":1200,"x_min":66,"x_max":1158,"o":"m 848 -14 q 607 139 665 -14 q 491 28 560 66 q 338 -11 421 -11 q 140 66 213 -11 q 66 275 66 144 q 117 519 66 407 q 253 692 168 632 q 444 753 338 753 q 688 600 628 753 q 809 716 739 675 q 965 757 878 757 q 1105 712 1053 757 q 1158 586 1158 667 q 1047 393 1158 461 q 729 325 935 325 l 701 325 l 699 271 q 741 131 699 180 q 869 82 783 82 q 959 96 916 82 q 1069 139 1002 110 l 1069 37 q 848 -14 960 -14 m 726 419 q 964 460 883 419 q 1046 581 1046 502 q 1023 637 1046 615 q 958 660 1000 660 q 808 595 874 660 q 714 419 743 530 l 726 419 m 599 482 q 558 612 599 566 q 441 657 517 657 q 307 607 366 657 q 216 470 248 557 q 183 283 183 383 q 225 133 183 183 q 342 83 267 83 q 531 192 463 83 q 599 482 599 301 z "},"Ÿ":{"ha":699,"x_min":127,"x_max":827,"o":"m 363 1107 q 351 1107 363 1107 q 322 1122 338 1107 q 307 1166 307 1137 q 326 1218 307 1196 q 376 1240 345 1240 q 429 1186 429 1240 q 408 1130 429 1153 q 363 1107 389 1107 m 610 1107 q 597 1107 610 1107 q 569 1122 585 1107 q 553 1166 553 1137 q 573 1218 553 1196 q 623 1240 592 1240 q 675 1186 675 1240 q 655 1130 675 1153 q 610 1107 636 1107 m 827 991 l 401 367 l 325 0 l 208 0 l 289 372 l 127 991 l 243 991 l 364 485 l 696 991 l 827 991 z "},"ƒ":{"ha":765,"x_min":3,"x_max":754,"o":"m 86 -334 q 3 -319 39 -334 l 3 -224 q 79 -239 43 -239 q 201 -77 168 -239 l 338 570 l 208 570 l 216 614 l 355 659 l 375 758 q 458 948 400 890 q 627 1006 516 1006 q 692 999 653 1006 q 754 981 732 991 l 725 893 q 632 913 672 913 q 541 879 572 913 q 490 760 509 845 l 468 654 l 629 654 l 612 570 l 452 570 l 313 -87 q 232 -274 286 -215 q 86 -334 177 -334 z "},"ˆ":{"ha":770,"x_min":271,"x_max":688,"o":"m 688 842 l 618 842 q 509 970 578 875 q 345 842 419 890 l 271 842 l 271 860 q 409 994 373 954 q 465 1064 450 1038 l 572 1064 q 659 905 598 996 l 688 860 l 688 842 z "},"ˇ":{"ha":770,"x_min":317,"x_max":733,"o":"m 317 1064 l 385 1064 q 494 936 421 1036 q 661 1064 578 1010 l 733 1064 l 733 1046 q 619 937 679 998 q 539 842 559 876 l 431 842 q 346 1001 406 909 l 317 1046 l 317 1064 z "},"˘":{"ha":770,"x_min":322,"x_max":713,"o":"m 713 1023 q 497 842 667 842 q 368 882 414 842 q 322 994 322 922 l 322 1008 l 323 1023 l 390 1023 q 416 960 390 981 q 503 939 442 939 q 640 1023 616 939 l 713 1023 z "},"˙":{"ha":338,"x_min":220,"x_max":357,"o":"m 283 869 q 269 869 283 869 q 237 886 255 869 q 220 937 220 903 q 241 995 220 970 q 297 1019 263 1019 q 357 958 357 1019 q 334 895 357 920 q 283 869 311 869 z "},"˚":{"ha":802,"x_min":374,"x_max":671,"o":"m 524 1129 q 557 1129 524 1129 q 631 1091 591 1129 q 671 986 671 1053 q 630 881 671 920 q 522 842 589 842 q 414 881 454 842 q 374 984 374 920 q 416 1089 374 1049 q 524 1129 458 1129 m 579 929 q 589 940 579 929 q 600 986 600 950 q 579 1043 600 1022 q 523 1064 557 1064 q 466 1043 488 1064 q 444 985 444 1021 q 464 928 444 949 q 521 908 484 908 q 579 929 557 908 z "},"˛":{"ha":253,"x_min":-98,"x_max":125,"o":"m 46 -69 q -4 -173 -4 -124 q 43 -222 -4 -222 q 97 -216 69 -222 l 97 -289 q 16 -298 67 -298 q -66 -270 -35 -298 q -98 -189 -98 -241 q -43 -66 -98 -121 q 46 0 -15 -39 l 125 0 q 46 -69 71 -42 z "},"˜":{"ha":770,"x_min":228,"x_max":726,"o":"m 568 843 q 502 862 538 843 q 432 901 465 882 q 373 920 399 920 q 329 901 347 920 q 296 842 311 883 l 228 842 q 385 1017 267 1017 q 441 1004 411 1017 q 492 978 471 992 q 577 939 549 939 q 623 956 606 939 q 659 1018 640 974 l 726 1018 q 568 843 682 843 z "},"˝":{"ha":770,"x_min":269,"x_max":774,"o":"m 269 842 l 269 860 q 348 954 300 892 q 425 1064 395 1015 l 542 1064 l 542 1050 q 441 940 507 1006 q 328 842 374 875 l 269 842 m 501 842 l 501 860 q 580 956 535 897 q 657 1064 629 1018 l 774 1064 l 774 1050 q 673 940 739 1006 q 559 842 606 875 l 501 842 z "},"ְ":{"ha":0,"x_min":353,"x_max":498,"o":"m 459 -62 q 498 -100 498 -62 q 496 -121 498 -110 q 434 -180 484 -180 q 396 -143 396 -180 q 399 -121 396 -134 q 459 -62 411 -62 m 415 -268 q 455 -306 455 -268 q 452 -327 455 -315 q 390 -385 440 -385 q 353 -349 353 -385 q 355 -327 353 -339 q 415 -268 368 -268 z "},"ֱ":{"ha":0,"x_min":207,"x_max":732,"o":"m 270 -62 q 309 -100 309 -62 q 307 -121 309 -110 q 245 -180 294 -180 q 207 -143 207 -180 q 210 -121 207 -134 q 270 -62 222 -62 m 494 -62 q 533 -100 533 -62 q 530 -121 533 -110 q 469 -180 518 -180 q 431 -143 431 -180 q 433 -121 431 -134 q 494 -62 446 -62 m 692 -62 q 732 -100 732 -62 q 729 -121 732 -110 q 667 -180 717 -180 q 629 -143 629 -180 q 632 -121 629 -134 q 692 -62 644 -62 m 337 -268 q 377 -306 377 -268 q 374 -327 377 -315 q 312 -385 362 -385 q 275 -349 275 -385 q 277 -327 275 -339 q 337 -268 290 -268 m 648 -268 q 688 -306 688 -268 q 686 -327 688 -315 q 623 -385 673 -385 q 586 -349 586 -385 q 589 -327 586 -339 q 648 -268 601 -268 z "},"ֲ":{"ha":0,"x_min":231,"x_max":686,"o":"m 646 -62 q 686 -100 686 -62 q 683 -121 686 -110 q 621 -180 671 -180 q 583 -143 583 -180 q 586 -121 583 -134 q 646 -62 598 -62 m 509 -149 l 231 -149 l 242 -93 l 520 -93 l 509 -149 m 602 -268 q 642 -306 642 -268 q 640 -327 642 -315 q 577 -385 627 -385 q 540 -349 540 -385 q 543 -327 540 -339 q 602 -268 555 -268 z "},"ֳ":{"ha":0,"x_min":231,"x_max":686,"o":"m 646 -62 q 686 -100 686 -62 q 683 -121 686 -110 q 621 -180 671 -180 q 583 -143 583 -180 q 586 -121 583 -134 q 646 -62 598 -62 m 509 -149 l 397 -149 l 363 -306 l 308 -306 l 342 -149 l 231 -149 l 242 -93 l 520 -93 l 509 -149 m 602 -268 q 642 -306 642 -268 q 640 -327 642 -315 q 577 -385 627 -385 q 540 -349 540 -385 q 543 -327 540 -339 q 602 -268 555 -268 z "},"ִ":{"ha":0,"x_min":374,"x_max":477,"o":"m 437 -62 q 477 -100 477 -62 q 474 -121 477 -110 q 412 -180 462 -180 q 374 -143 374 -180 q 377 -121 374 -134 q 437 -62 389 -62 z "},"ֵ":{"ha":0,"x_min":262,"x_max":589,"o":"m 325 -62 q 365 -100 365 -62 q 362 -121 365 -110 q 300 -180 350 -180 q 262 -143 262 -180 q 265 -121 262 -134 q 325 -62 277 -62 m 549 -62 q 589 -100 589 -62 q 586 -121 589 -110 q 524 -180 574 -180 q 486 -143 486 -180 q 489 -121 486 -134 q 549 -62 501 -62 z "},"ֶ":{"ha":0,"x_min":285,"x_max":611,"o":"m 348 -62 q 387 -100 387 -62 q 385 -121 387 -110 q 323 -180 372 -180 q 285 -143 285 -180 q 288 -121 285 -134 q 348 -62 300 -62 m 572 -62 q 611 -100 611 -62 q 608 -121 611 -110 q 547 -180 596 -180 q 509 -143 509 -180 q 511 -121 509 -134 q 572 -62 524 -62 m 415 -268 q 455 -306 455 -268 q 452 -327 455 -315 q 390 -385 440 -385 q 353 -349 353 -385 q 355 -327 353 -339 q 415 -268 368 -268 z "},"ַ":{"ha":0,"x_min":279,"x_max":570,"o":"m 557 -142 l 279 -142 l 292 -87 l 570 -87 l 557 -142 z "},"ָ":{"ha":0,"x_min":296,"x_max":586,"o":"m 574 -142 l 463 -142 l 430 -300 l 374 -300 l 408 -142 l 296 -142 l 308 -87 l 586 -87 l 574 -142 z "},"ֹ":{"ha":0,"x_min":374,"x_max":477,"o":"m 437 1061 q 477 1023 477 1061 q 474 1002 477 1013 q 412 943 462 943 q 374 980 374 943 q 377 1002 374 989 q 437 1061 389 1061 z "},"ֺ":{"ha":0,"x_min":374,"x_max":477,"o":"m 437 1061 q 477 1023 477 1061 q 474 1002 477 1013 q 412 943 462 943 q 374 980 374 943 q 377 1002 374 989 q 437 1061 389 1061 z "},"ֻ":{"ha":0,"x_min":285,"x_max":568,"o":"m 348 -62 q 387 -100 387 -62 q 385 -121 387 -110 q 323 -180 372 -180 q 285 -143 285 -180 q 288 -121 285 -134 q 348 -62 300 -62 m 437 -165 q 477 -203 477 -165 q 474 -224 477 -212 q 412 -282 462 -282 q 374 -245 374 -282 q 377 -224 374 -236 q 437 -165 389 -165 m 528 -268 q 568 -306 568 -268 q 565 -327 568 -315 q 503 -385 553 -385 q 465 -349 465 -385 q 468 -327 465 -339 q 528 -268 480 -268 z "},"ּ":{"ha":0,"x_min":374,"x_max":477,"o":"m 437 498 q 477 460 477 498 q 474 439 477 451 q 412 381 462 381 q 374 418 374 381 q 377 439 374 427 q 437 498 389 498 z "},"ֽ":{"ha":852,"x_min":366,"x_max":486,"o":"m 435 -345 l 366 -345 l 416 -106 l 486 -106 l 435 -345 z "},"־":{"ha":447,"x_min":46,"x_max":401,"o":"m 379 772 l 46 772 l 68 875 l 401 875 l 379 772 z "},"ׁ":{"ha":0,"x_min":338,"x_max":440,"o":"m 400 1061 q 440 1023 440 1061 q 437 1002 440 1013 q 376 943 425 943 q 338 980 338 943 q 340 1002 338 989 q 400 1061 353 1061 z "},"ׂ":{"ha":0,"x_min":374,"x_max":477,"o":"m 437 1061 q 477 1023 477 1061 q 474 1002 477 1013 q 412 943 462 943 q 374 980 374 943 q 377 1002 374 989 q 437 1061 389 1061 z "},"ׇ":{"ha":0,"x_min":85,"x_max":377,"o":"m 363 -142 l 254 -142 l 220 -301 l 157 -301 l 191 -142 l 85 -142 l 99 -75 l 377 -75 l 363 -142 z "},"א":{"ha":785,"x_min":-31,"x_max":800,"o":"m 800 875 l 740 591 q 655 376 708 444 q 598 321 633 347 q 520 280 564 296 l 629 0 l 503 0 l 366 366 l 296 520 q 253 500 267 510 q 151 325 177 448 l 82 0 l -31 0 l 30 284 q 50 363 39 329 q 78 437 60 397 q 121 505 97 476 q 182 559 144 534 q 266 600 219 585 l 156 875 l 283 875 l 412 536 l 488 361 q 576 438 543 389 q 618 550 603 477 l 688 875 l 800 875 z "},"ב":{"ha":741,"x_min":-25,"x_max":656,"o":"m 161 878 q 418 888 272 888 q 620 825 564 888 q 656 709 656 785 q 644 610 656 665 l 533 87 l 633 87 l 614 0 l -25 0 l -7 87 l 420 87 l 532 612 q 541 678 541 650 q 533 725 541 705 q 512 758 525 744 q 479 779 499 771 q 385 793 439 793 q 176 785 273 793 l 141 783 l 161 878 z "},"ג":{"ha":581,"x_min":-47,"x_max":532,"o":"m 361 888 q 532 736 532 888 q 523 656 532 700 l 384 0 l 291 0 l 309 148 l 304 148 q 262 97 294 131 q 202 42 230 64 q 131 4 174 21 q 53 -14 89 -14 q -47 -5 -16 -14 l -8 98 q 83 90 18 90 q 192 129 130 90 q 255 181 225 151 q 311 258 286 211 q 348 359 336 304 l 408 646 q 415 700 415 676 q 407 747 415 723 q 374 784 399 770 q 306 798 348 798 q 218 785 267 798 l 237 874 q 361 888 294 888 z "},"ד":{"ha":701,"x_min":104,"x_max":761,"o":"m 761 875 l 745 798 q 564 602 596 758 l 435 0 l 323 0 l 451 602 q 476 676 460 642 q 511 728 493 709 q 571 779 547 768 l 582 784 l 583 787 l 104 787 l 122 875 l 761 875 z "},"ה":{"ha":852,"x_min":14,"x_max":792,"o":"m 760 798 q 792 683 792 749 q 783 610 792 650 l 654 0 l 541 0 l 671 612 q 677 648 677 634 q 675 677 677 661 q 666 712 673 693 q 642 745 658 731 q 608 768 626 759 q 566 783 589 777 q 469 793 520 793 q 228 785 359 793 l 180 783 l 201 878 q 492 888 361 888 q 760 798 698 888 m 127 0 l 14 0 l 133 558 l 245 558 l 127 0 z "},"ו":{"ha":330,"x_min":16,"x_max":314,"o":"m 128 0 l 16 0 l 201 875 l 314 875 l 128 0 z "},"ז":{"ha":415,"x_min":77,"x_max":476,"o":"m 476 875 l 458 787 q 419 759 443 781 q 376 709 395 736 q 335 631 357 682 q 300 519 313 581 l 190 0 l 77 0 l 187 517 q 219 611 197 566 q 264 686 241 656 q 345 773 315 751 l 359 784 l 360 787 l 151 787 l 169 875 l 476 875 z "},"ח":{"ha":852,"x_min":14,"x_max":792,"o":"m 760 798 q 792 683 792 749 q 783 610 792 650 l 654 0 l 541 0 l 671 612 q 677 648 677 634 q 675 677 677 661 q 666 712 673 693 q 642 745 658 731 q 608 768 626 759 q 566 783 589 777 q 467 793 520 793 l 294 787 l 127 0 l 14 0 l 201 878 q 492 888 361 888 q 760 798 698 888 z "},"ט":{"ha":849,"x_min":86,"x_max":806,"o":"m 455 880 q 560 888 496 888 q 677 862 624 888 q 765 781 730 836 q 806 606 806 715 q 784 428 806 532 q 717 235 762 323 q 613 93 671 146 q 488 13 554 40 q 350 -14 422 -14 q 223 13 278 -14 q 132 94 169 39 q 86 277 86 162 q 104 437 86 348 l 197 875 l 314 875 l 221 437 q 203 288 203 351 q 229 154 203 204 q 283 101 248 121 q 370 81 318 81 q 465 101 421 81 q 541 154 509 121 q 598 235 572 187 q 685 526 662 351 q 691 612 691 570 q 682 685 691 653 q 655 742 673 716 q 533 794 620 794 q 435 787 477 794 l 455 880 z "},"י":{"ha":307,"x_min":74,"x_max":310,"o":"m 211 411 l 97 296 l 74 296 l 197 875 l 310 875 l 211 411 z "},"ך":{"ha":659,"x_min":104,"x_max":590,"o":"m 209 878 q 239 883 209 878 q 326 888 269 888 q 428 875 382 888 q 502 839 473 861 q 549 784 530 816 q 590 616 590 718 q 578 513 590 568 l 398 -334 l 286 -334 l 463 499 q 476 611 476 557 q 463 690 476 654 q 432 744 450 725 q 381 776 414 763 q 298 789 348 789 q 198 780 248 789 q 126 763 148 772 l 104 754 l 125 854 q 209 878 150 867 z "},"כ":{"ha":633,"x_min":-45,"x_max":598,"o":"m 217 878 q 247 883 217 878 q 333 888 276 888 q 435 875 390 888 q 509 839 480 861 q 557 784 538 816 q 598 616 598 719 q 587 513 598 567 l 555 364 q 546 329 551 347 q 527 270 542 311 q 492 196 511 230 q 439 121 473 162 q 365 53 406 81 q 265 5 325 24 q 144 -14 205 -14 q 36 -7 82 -14 q -27 5 -9 -1 l -45 12 l -24 113 q 164 85 58 85 q 268 107 220 85 q 344 161 315 130 q 395 235 372 193 q 443 366 429 298 l 471 499 q 484 613 484 557 q 471 691 484 656 q 440 744 458 725 q 389 776 422 763 q 306 789 356 789 q 206 780 256 789 q 134 763 156 772 l 112 754 l 134 854 q 217 878 158 867 z "},"ל":{"ha":661,"x_min":125,"x_max":716,"o":"m 256 875 l 716 875 l 698 787 l 485 340 l 342 0 l 229 0 l 371 340 l 585 787 l 125 787 l 181 1054 l 294 1054 l 256 875 z "},"ם":{"ha":852,"x_min":14,"x_max":798,"o":"m 503 888 q 701 855 631 888 q 782 781 763 825 q 798 711 798 743 q 791 650 798 679 l 654 0 l 14 0 l 199 870 q 503 888 321 888 m 675 633 q 681 675 681 656 q 677 707 681 694 q 667 733 673 721 q 650 753 661 745 q 628 768 640 762 q 601 779 616 775 q 571 786 585 783 q 537 790 556 789 q 465 793 500 793 q 319 787 387 793 l 294 785 l 145 87 l 559 87 l 675 633 z "},"מ":{"ha":833,"x_min":-25,"x_max":772,"o":"m 298 783 l 303 783 q 475 877 370 850 q 566 888 520 888 q 742 811 694 888 q 772 692 772 763 q 761 598 772 650 l 634 0 l 336 0 l 354 87 l 540 87 l 648 593 q 656 645 656 626 q 640 732 656 702 q 507 793 606 793 q 441 782 475 793 q 384 755 408 771 q 308 696 332 721 l 298 685 l 88 0 l -25 0 l 182 673 q 189 748 189 696 q 182 833 189 800 l 174 875 l 287 875 q 298 783 298 846 z "},"ן":{"ha":314,"x_min":-58,"x_max":271,"o":"m 263 873 q 271 803 271 839 q 270 745 271 768 q 254 609 269 675 l 54 -334 l -58 -334 l 142 609 q 159 753 159 692 q 151 873 159 814 l 263 873 z "},"נ":{"ha":596,"x_min":-28,"x_max":550,"o":"m 378 888 q 550 736 550 888 q 541 656 550 700 l 447 214 q 417 105 435 159 q 387 26 399 52 l 375 0 l -28 0 l -9 87 l 293 87 q 334 214 317 138 l 425 646 q 431 721 436 692 q 415 764 426 750 q 381 788 404 779 q 331 798 357 798 q 235 785 284 798 l 254 874 q 378 888 311 888 z "},"ס":{"ha":807,"x_min":44,"x_max":764,"o":"m 499 888 q 722 781 654 888 q 764 606 764 715 q 742 428 764 532 q 675 235 720 323 q 571 93 629 146 q 446 13 512 40 q 308 -14 380 -14 q 181 13 236 -14 q 90 94 127 39 q 44 277 44 162 q 62 437 44 348 q 137 652 90 564 q 237 787 184 740 l 149 781 l 170 877 q 499 888 315 888 m 357 791 q 247 634 294 733 q 180 443 199 534 q 161 286 161 351 q 187 154 161 204 q 241 101 205 121 q 328 81 276 81 q 423 101 379 81 q 499 154 467 121 q 556 235 530 187 q 643 526 622 352 q 648 586 648 565 q 648 609 648 607 q 609 740 648 688 q 479 792 570 792 l 357 791 z "},"ע":{"ha":852,"x_min":-50,"x_max":879,"o":"m 321 875 l 341 480 q 345 117 341 399 q 652 493 560 190 l 766 874 l 879 874 l 765 493 q 647 242 719 338 q 575 162 618 203 q 481 90 532 121 q 360 35 430 60 q 209 0 290 11 l -50 -35 l -31 54 l 243 95 l 204 875 l 321 875 z "},"ף":{"ha":818,"x_min":77,"x_max":741,"o":"m 77 500 q 88 586 77 535 q 129 688 99 636 q 199 775 159 739 q 286 838 239 812 q 482 888 381 888 q 697 781 628 888 q 741 603 741 714 q 722 437 741 530 l 558 -334 l 446 -334 l 610 437 q 629 587 629 524 q 602 721 629 671 q 549 774 584 754 q 457 794 513 794 q 350 773 400 794 q 267 719 299 753 q 190 576 205 653 q 182 504 182 541 q 201 438 182 467 q 318 375 232 391 l 347 370 l 311 286 l 286 290 q 115 378 170 305 q 77 500 77 427 z "},"פ":{"ha":795,"x_min":45,"x_max":751,"o":"m 83 500 q 92 576 83 535 q 149 711 107 650 q 247 810 191 772 q 488 888 363 888 q 705 781 634 888 q 751 598 751 713 q 730 425 751 527 q 663 235 709 323 q 559 94 618 146 q 296 -14 441 -14 q 77 0 181 -14 l 45 5 l 66 102 q 98 96 66 101 q 192 86 130 91 q 310 81 254 81 q 411 101 367 81 q 487 154 455 121 q 545 235 519 187 q 616 437 591 317 q 635 587 635 524 q 608 721 635 671 q 555 774 590 754 q 469 794 519 794 q 375 780 418 794 q 303 744 332 766 q 250 693 273 722 q 195 576 209 640 q 188 504 188 541 q 208 438 188 467 q 323 375 238 391 l 353 370 l 317 286 l 292 290 q 121 378 176 305 q 83 500 83 427 z "},"ץ":{"ha":650,"x_min":33,"x_max":683,"o":"m 288 458 q 292 409 292 425 q 292 389 292 393 l 372 415 q 513 604 479 448 l 570 874 l 683 874 l 634 644 q 613 561 625 598 q 579 484 601 524 q 531 414 558 444 q 461 359 503 385 q 366 321 419 334 l 279 299 l 145 -334 l 33 -334 l 186 391 l 107 875 l 227 875 l 288 458 z "},"צ":{"ha":763,"x_min":-42,"x_max":793,"o":"m 793 877 q 742 709 750 736 q 730 669 742 709 q 703 594 715 622 q 678 540 691 566 q 652 494 665 513 q 622 452 640 475 q 585 412 604 429 q 490 348 541 371 l 620 87 l 602 0 l -42 0 l -24 87 l 349 87 l 503 80 l 503 83 l 342 389 l 137 875 l 265 875 l 437 454 l 452 423 q 554 528 511 454 q 633 720 596 601 l 681 877 l 793 877 z "},"ק":{"ha":793,"x_min":-51,"x_max":848,"o":"m 830 788 l 655 442 q 521 167 547 227 q 465 23 471 52 l 460 0 l 348 0 l 353 23 q 403 155 362 68 q 463 280 444 242 q 550 456 532 422 l 718 788 l 186 788 l 205 875 l 848 875 l 830 788 m 61 -334 l -51 -334 l 131 523 l 243 523 l 61 -334 z "},"ר":{"ha":665,"x_min":109,"x_max":605,"o":"m 130 884 q 301 888 226 888 q 424 879 376 888 q 511 850 471 870 q 572 798 551 829 q 605 683 605 749 q 596 610 605 650 l 467 0 l 354 0 l 484 612 q 490 648 490 634 q 488 677 490 661 q 478 712 486 693 q 455 745 471 731 q 420 768 439 759 q 378 783 402 777 q 270 793 333 793 q 109 788 206 793 l 130 884 z "},"ש":{"ha":999,"x_min":49,"x_max":1031,"o":"m 376 87 q 621 182 509 87 q 724 309 677 229 q 803 493 771 388 l 919 874 l 1031 874 l 916 493 q 788 225 869 335 q 711 140 757 182 q 612 67 665 97 q 489 19 559 37 q 339 0 418 0 l 49 0 l 162 875 l 276 875 l 213 386 l 309 416 q 469 604 421 450 l 553 875 l 666 875 l 595 645 q 468 415 547 492 q 393 360 437 385 q 294 322 349 335 l 201 298 l 174 87 l 376 87 z "},"ת":{"ha":879,"x_min":-46,"x_max":820,"o":"m 820 675 q 811 610 820 650 l 681 0 l 568 0 l 698 612 q 703 660 703 637 q 697 701 703 682 q 652 758 684 739 q 494 793 593 793 q 386 789 465 793 l 264 217 q 180 50 242 110 q 20 -9 119 -9 q -46 0 -8 -9 l -26 93 q 27 86 23 86 q 149 201 125 86 l 272 780 l 174 771 l 195 867 q 520 888 389 888 q 726 850 651 888 q 820 675 820 801 z "},"׳":{"ha":236,"x_min":50,"x_max":321,"o":"m 321 860 q 138 535 256 714 l 50 535 q 188 875 142 741 l 315 875 l 321 860 z "},"״":{"ha":486,"x_min":50,"x_max":572,"o":"m 321 860 q 138 535 256 714 l 50 535 q 188 875 142 741 l 315 875 l 321 860 m 566 875 l 572 860 q 387 535 507 718 l 300 535 q 377 716 335 611 q 437 875 419 821 l 566 875 z "},"–":{"ha":667,"x_min":37,"x_max":619,"o":"m 61 427 l 619 427 l 596 318 l 37 318 l 61 427 z "},"—":{"ha":1333,"x_min":37,"x_max":1286,"o":"m 61 427 l 1286 427 l 1263 318 l 37 318 l 61 427 z "},"‘":{"ha":236,"x_min":83,"x_max":353,"o":"m 87 652 l 83 667 q 267 991 149 808 l 353 991 q 215 652 251 753 l 87 652 z "},"’":{"ha":236,"x_min":85,"x_max":355,"o":"m 355 977 q 172 652 291 831 l 85 652 q 222 991 177 857 l 350 991 l 355 977 z "},"‚":{"ha":334,"x_min":-68,"x_max":203,"o":"m 197 161 l 203 146 q 20 -179 127 -12 l -68 -179 q 71 161 18 17 l 197 161 z "},"“":{"ha":488,"x_min":83,"x_max":604,"o":"m 87 652 l 83 667 q 267 991 149 808 l 353 991 q 215 652 251 753 l 87 652 m 339 652 l 334 667 q 518 991 386 786 l 604 991 q 467 652 493 730 l 339 652 z "},"”":{"ha":488,"x_min":85,"x_max":607,"o":"m 355 977 q 172 652 291 831 l 85 652 q 222 991 177 857 l 350 991 l 355 977 m 600 991 l 607 977 q 421 652 542 834 l 335 652 q 412 833 370 728 q 472 991 454 938 l 600 991 z "},"„":{"ha":582,"x_min":-68,"x_max":453,"o":"m 197 161 l 203 146 q 20 -179 127 -12 l -68 -179 q 71 161 18 17 l 197 161 m 447 161 l 453 146 q 269 -179 392 13 l 182 -179 q 319 161 278 40 l 447 161 z "},"†":{"ha":647,"x_min":147,"x_max":659,"o":"m 422 696 l 310 0 l 170 0 l 354 697 l 147 675 l 171 793 l 370 771 l 395 1055 l 534 1055 l 437 771 l 659 793 l 635 675 l 422 696 z "},"‡":{"ha":661,"x_min":53,"x_max":679,"o":"m 579 351 l 554 235 l 340 256 l 322 0 l 182 0 l 272 256 l 53 235 l 78 351 l 289 330 l 301 533 l 371 725 l 151 703 l 178 821 l 389 799 l 407 1055 l 547 1055 l 457 799 l 679 821 l 653 703 l 440 725 l 431 533 l 358 330 l 579 351 z "},"•":{"ha":525,"x_min":135,"x_max":446,"o":"m 135 464 q 185 621 135 563 q 319 679 235 679 q 414 646 382 679 q 446 550 446 613 q 395 394 446 454 q 258 334 345 334 q 166 367 198 334 q 135 464 135 401 z "},"…":{"ha":1060,"x_min":29,"x_max":904,"o":"m 29 50 q 57 134 29 103 q 132 164 84 164 q 180 146 162 164 q 197 86 197 128 q 170 12 197 44 q 97 -20 142 -20 q 47 -2 65 -20 q 29 50 29 16 m 382 50 q 409 134 382 103 q 485 164 437 164 q 532 146 515 164 q 550 86 550 128 q 523 12 550 44 q 450 -20 495 -20 q 400 -2 418 -20 q 382 50 382 16 m 736 50 q 763 134 736 103 q 839 164 791 164 q 886 146 869 164 q 904 86 904 128 q 877 12 904 44 q 804 -20 849 -20 q 754 -2 772 -20 q 736 50 736 16 z "},"‰":{"ha":1552,"x_min":114,"x_max":1489,"o":"m 536 818 q 515 659 536 747 q 458 509 494 570 q 271 383 386 383 q 155 435 196 383 q 114 591 114 486 q 148 799 114 695 q 376 1006 217 1006 q 495 957 454 1006 q 536 818 536 909 m 260 0 l 157 0 l 893 991 l 996 991 l 260 0 m 368 921 q 287 878 323 921 q 230 750 251 834 q 208 586 208 665 q 281 469 208 469 q 394 573 351 469 q 429 691 416 624 q 441 808 441 758 q 368 921 441 921 m 1039 421 q 1017 261 1039 350 q 962 113 996 172 q 774 -14 889 -14 q 657 37 699 -14 q 616 193 616 88 q 650 401 616 298 q 879 608 720 608 q 998 560 958 608 q 1039 421 1039 512 m 1489 421 q 1467 261 1489 350 q 1411 113 1445 172 q 1223 -14 1339 -14 q 1108 38 1149 -14 q 1067 193 1067 89 q 1101 401 1067 298 q 1329 608 1170 608 q 1448 560 1407 608 q 1489 421 1489 512 m 871 524 q 789 479 825 524 q 732 352 753 435 q 711 189 711 269 q 783 72 711 72 q 862 115 827 72 q 921 250 897 159 q 945 411 945 342 q 871 524 945 524 m 1321 524 q 1240 480 1276 524 q 1182 353 1204 437 q 1161 189 1161 270 q 1234 72 1161 72 q 1347 176 1304 72 q 1381 294 1369 227 q 1394 411 1394 361 q 1321 524 1394 524 z "},"‹":{"ha":393,"x_min":60,"x_max":378,"o":"m 325 650 l 378 595 l 176 368 l 293 110 l 216 77 l 60 372 l 60 392 l 325 650 z "},"›":{"ha":393,"x_min":16,"x_max":334,"o":"m 68 78 l 16 134 l 216 359 l 100 618 l 176 652 l 334 355 l 334 336 l 68 78 z "},"⁄":{"ha":182,"x_min":-330,"x_max":510,"o":"m -227 0 l -330 0 l 406 991 l 510 991 l -227 0 z "},"₪":{"ha":1088,"x_min":16,"x_max":1076,"o":"m 526 874 q 735 819 682 874 q 777 704 777 778 q 765 610 777 663 l 691 262 l 578 262 l 653 612 q 661 669 661 644 q 656 711 661 694 q 641 743 651 729 q 616 765 630 756 q 582 779 602 773 q 492 787 548 787 l 296 787 l 128 0 l 16 0 l 201 874 l 526 874 m 445 0 l 267 0 l 397 612 l 510 612 l 398 87 l 481 87 q 724 181 618 87 q 819 308 777 229 q 882 493 860 388 l 963 874 l 1076 874 l 996 493 q 811 140 949 273 q 715 67 767 97 q 594 18 664 37 q 445 0 524 0 z "},"€":{"ha":765,"x_min":43,"x_max":840,"o":"m 629 901 q 456 833 533 901 q 329 632 379 766 l 618 632 l 600 542 l 301 542 q 279 431 286 496 l 538 431 l 518 342 l 273 342 q 475 89 273 89 q 648 126 559 89 l 648 26 q 460 -14 561 -14 q 237 77 316 -14 q 158 334 158 168 l 158 342 l 43 342 l 61 431 l 165 431 q 186 542 171 485 l 83 542 l 102 632 l 210 632 q 385 908 275 812 q 636 1004 495 1004 q 745 990 696 1004 q 840 942 793 975 l 786 848 q 629 901 709 901 z "},"™":{"ha":1040,"x_min":82,"x_max":970,"o":"m 215 503 l 215 921 l 82 921 l 82 991 l 432 991 l 432 921 l 297 921 l 297 503 l 215 503 m 558 794 l 558 503 l 478 503 l 478 991 l 600 991 l 724 614 l 854 991 l 970 991 l 970 503 l 888 503 l 888 794 q 890 876 888 847 l 886 876 l 753 503 l 688 503 l 559 876 l 555 876 q 558 794 558 844 z "},"∫":{"ha":533,"x_min":26,"x_max":533,"o":"m 231 -82 l 231 804 q 450 1055 231 1055 q 533 1044 507 1055 l 533 951 q 458 966 503 966 q 338 804 338 966 l 338 -78 q 280 -269 338 -203 q 111 -334 222 -334 q 26 -323 64 -334 l 26 -229 q 102 -243 68 -243 q 198 -202 165 -243 q 231 -82 231 -161 z "},"≠":{"ha":765,"x_min":86,"x_max":710,"o":"m 86 301 l 86 397 l 301 397 l 387 582 l 86 582 l 86 676 l 432 676 l 522 869 l 610 831 l 538 676 l 710 676 l 710 582 l 493 582 l 406 397 l 710 397 l 710 301 l 361 301 l 273 113 l 186 149 l 257 301 l 86 301 z "},"◊":{"ha":810,"x_min":103,"x_max":764,"o":"m 457 0 l 408 0 l 103 498 l 408 1000 l 457 1000 l 764 500 l 457 0 m 433 856 l 221 500 l 433 143 l 646 500 l 433 856 z "},"ﬁ":{"ha":787,"x_min":-155,"x_max":803,"o":"m -71 -334 q -155 -319 -118 -334 l -155 -224 q -79 -239 -113 -239 q -1 -199 -30 -239 q 45 -77 27 -159 l 199 657 l 68 657 l 77 703 l 216 747 l 232 815 q 318 1006 264 951 q 482 1063 374 1063 q 547 1055 509 1063 q 610 1038 585 1048 l 581 950 q 488 970 528 970 q 396 937 428 970 q 346 817 365 904 l 329 743 l 490 743 l 473 657 l 313 657 l 155 -87 q 74 -274 129 -215 q -71 -334 20 -334 m 729 869 q 714 869 729 869 q 683 886 700 869 q 665 937 665 903 q 687 995 665 971 q 743 1019 709 1019 q 803 958 803 1019 q 780 895 803 920 q 729 869 758 869 m 475 0 l 633 743 l 747 743 l 589 0 l 475 0 z "},"ﬂ":{"ha":787,"x_min":-155,"x_max":812,"o":"m -71 -334 q -155 -319 -118 -334 l -155 -224 q -79 -239 -113 -239 q -1 -199 -30 -239 q 45 -77 27 -159 l 199 657 l 68 657 l 77 703 l 216 747 l 232 815 q 318 1006 264 951 q 482 1063 374 1063 q 547 1055 509 1063 q 610 1038 585 1048 l 581 950 q 488 970 528 970 q 396 937 428 970 q 346 817 365 904 l 329 743 l 490 743 l 473 657 l 313 657 l 155 -87 q 74 -274 129 -215 q -71 -334 20 -334 m 699 1055 l 812 1055 l 587 0 l 473 0 l 699 1055 z "},"שׁ":{"ha":999,"x_min":49,"x_max":1084,"o":"m 1044 1089 q 1084 1051 1084 1089 q 1082 1030 1084 1042 q 1020 972 1069 972 q 982 1008 982 972 q 985 1030 982 1018 q 1044 1089 997 1089 m 376 87 q 621 182 509 87 q 724 309 677 229 q 803 493 771 388 l 919 874 l 1031 874 l 916 493 q 788 225 869 335 q 711 140 757 182 q 612 67 665 97 q 489 19 559 37 q 339 0 418 0 l 49 0 l 162 875 l 276 875 l 213 386 l 309 416 q 469 604 421 450 l 553 875 l 666 875 l 595 645 q 468 415 547 492 q 393 360 437 385 q 294 322 349 335 l 201 298 l 174 87 l 376 87 z "},"שׂ":{"ha":999,"x_min":49,"x_max":1031,"o":"m 241 1089 q 281 1051 281 1089 q 279 1030 281 1042 q 217 972 267 972 q 179 1008 179 972 q 182 1030 179 1018 q 241 1089 194 1089 m 376 87 q 621 182 509 87 q 724 309 677 229 q 803 493 771 388 l 919 874 l 1031 874 l 916 493 q 788 225 869 335 q 711 140 757 182 q 612 67 665 97 q 489 19 559 37 q 339 0 418 0 l 49 0 l 162 875 l 276 875 l 213 386 l 309 416 q 469 604 421 450 l 553 875 l 666 875 l 595 645 q 468 415 547 492 q 393 360 437 385 q 294 322 349 335 l 201 298 l 174 87 l 376 87 z "},"שּׁ":{"ha":999,"x_min":49,"x_max":1084,"o":"m 1044 1089 q 1084 1051 1084 1089 q 1082 1030 1084 1042 q 1020 972 1069 972 q 982 1008 982 972 q 985 1030 982 1018 q 1044 1089 997 1089 m 376 87 q 621 182 509 87 q 724 309 677 229 q 803 493 771 388 l 919 874 l 1031 874 l 916 493 q 788 225 869 335 q 711 140 757 182 q 612 67 665 97 q 489 19 559 37 q 339 0 418 0 l 49 0 l 162 875 l 276 875 l 213 386 l 309 416 q 469 604 421 450 l 553 875 l 666 875 l 595 645 q 468 415 547 492 q 393 360 437 385 q 294 322 349 335 l 201 298 l 174 87 l 376 87 m 527 352 q 567 314 567 352 q 564 293 567 304 q 503 235 552 235 q 465 271 465 235 q 467 293 465 281 q 527 352 479 352 z "},"שּׂ":{"ha":999,"x_min":49,"x_max":1031,"o":"m 241 1089 q 281 1051 281 1089 q 279 1030 281 1042 q 217 972 267 972 q 179 1008 179 972 q 182 1030 179 1018 q 241 1089 194 1089 m 376 87 q 621 182 509 87 q 724 309 677 229 q 803 493 771 388 l 919 874 l 1031 874 l 916 493 q 788 225 869 335 q 711 140 757 182 q 612 67 665 97 q 489 19 559 37 q 339 0 418 0 l 49 0 l 162 875 l 276 875 l 213 386 l 309 416 q 469 604 421 450 l 553 875 l 666 875 l 595 645 q 468 415 547 492 q 393 360 437 385 q 294 322 349 335 l 201 298 l 174 87 l 376 87 m 527 352 q 567 314 567 352 q 564 293 567 304 q 503 235 552 235 q 465 271 465 235 q 467 293 465 281 q 527 352 479 352 z "},"אַ":{"ha":785,"x_min":-31,"x_max":800,"o":"m 800 875 l 740 591 q 655 376 708 444 q 598 321 633 347 q 520 280 564 296 l 629 0 l 503 0 l 366 366 l 296 520 q 253 500 267 510 q 151 325 177 448 l 82 0 l -31 0 l 30 284 q 50 363 39 329 q 78 437 60 397 q 121 505 97 476 q 182 559 144 534 q 266 600 219 585 l 156 875 l 283 875 l 412 536 l 488 361 q 576 438 543 389 q 618 550 603 477 l 688 875 l 800 875 m 405 -153 l 127 -153 l 139 -97 l 417 -97 l 405 -153 z "},"אָ":{"ha":785,"x_min":-31,"x_max":800,"o":"m 800 875 l 740 591 q 655 376 708 444 q 598 321 633 347 q 520 280 564 296 l 629 0 l 503 0 l 366 366 l 296 520 q 253 500 267 510 q 151 325 177 448 l 82 0 l -31 0 l 30 284 q 50 363 39 329 q 78 437 60 397 q 121 505 97 476 q 182 559 144 534 q 266 600 219 585 l 156 875 l 283 875 l 412 536 l 488 361 q 576 438 543 389 q 618 550 603 477 l 688 875 l 800 875 m 406 -153 l 294 -153 l 261 -310 l 205 -310 l 239 -153 l 127 -153 l 139 -97 l 417 -97 l 406 -153 z "},"אּ":{"ha":785,"x_min":-31,"x_max":800,"o":"m 800 875 l 740 591 q 655 376 708 444 q 598 321 633 347 q 520 280 564 296 l 629 0 l 503 0 l 366 366 l 296 520 q 253 500 267 510 q 151 325 177 448 l 82 0 l -31 0 l 30 284 q 50 363 39 329 q 78 437 60 397 q 121 505 97 476 q 182 559 144 534 q 266 600 219 585 l 156 875 l 283 875 l 412 536 l 488 361 q 576 438 543 389 q 618 550 603 477 l 688 875 l 800 875 m 288 313 q 328 275 328 313 q 326 254 328 265 q 264 195 313 195 q 226 232 226 195 q 229 254 226 241 q 288 313 241 313 z "},"בּ":{"ha":741,"x_min":-25,"x_max":656,"o":"m 161 878 q 418 888 272 888 q 620 825 564 888 q 656 709 656 785 q 644 610 656 665 l 533 87 l 633 87 l 614 0 l -25 0 l -7 87 l 420 87 l 532 612 q 541 678 541 650 q 533 725 541 705 q 512 758 525 744 q 479 779 499 771 q 385 793 439 793 q 176 785 273 793 l 141 783 l 161 878 m 281 510 q 321 472 321 510 q 319 451 321 463 q 257 393 307 393 q 219 429 219 393 q 222 451 219 439 q 281 510 234 510 z "},"גּ":{"ha":581,"x_min":-47,"x_max":532,"o":"m 361 888 q 532 736 532 888 q 523 656 532 700 l 384 0 l 291 0 l 309 148 l 304 148 q 262 97 294 131 q 202 42 230 64 q 131 4 174 21 q 53 -14 89 -14 q -47 -5 -16 -14 l -8 98 q 83 90 18 90 q 192 129 130 90 q 255 181 225 151 q 311 258 286 211 q 348 359 336 304 l 408 646 q 415 700 415 676 q 407 747 415 723 q 374 784 399 770 q 306 798 348 798 q 218 785 267 798 l 237 874 q 361 888 294 888 m 239 510 q 279 472 279 510 q 277 451 279 463 q 215 393 264 393 q 177 429 177 393 q 180 451 177 439 q 239 510 192 510 z "},"דּ":{"ha":701,"x_min":104,"x_max":761,"o":"m 761 875 l 745 798 q 564 602 596 758 l 435 0 l 323 0 l 451 602 q 476 676 460 642 q 511 728 493 709 q 571 779 547 768 l 582 784 l 583 787 l 104 787 l 122 875 l 761 875 m 243 510 q 283 472 283 510 q 281 451 283 463 q 219 393 269 393 q 181 429 181 393 q 184 451 181 439 q 243 510 196 510 z "},"הּ":{"ha":852,"x_min":14,"x_max":792,"o":"m 760 798 q 792 683 792 749 q 783 610 792 650 l 654 0 l 541 0 l 671 612 q 677 648 677 634 q 675 677 677 661 q 666 712 673 693 q 642 745 658 731 q 608 768 626 759 q 566 783 589 777 q 469 793 520 793 q 228 785 359 793 l 180 783 l 201 878 q 492 888 361 888 q 760 798 698 888 m 14 0 l 133 558 l 245 558 l 127 0 l 14 0 m 439 510 q 479 472 479 510 q 476 451 479 463 q 414 393 464 393 q 376 429 376 393 q 379 451 376 439 q 439 510 391 510 z "},"וּ":{"ha":330,"x_min":-62,"x_max":314,"o":"m 16 0 l 201 875 l 314 875 l 128 0 l 16 0 m 1 543 q 41 505 41 543 q 38 484 41 496 q -24 426 26 426 q -62 463 -62 426 q -59 484 -62 472 q 1 543 -47 543 z "},"זּ":{"ha":415,"x_min":-16,"x_max":476,"o":"m 476 875 l 458 787 q 419 759 443 781 q 376 709 395 736 q 335 631 357 682 q 300 519 313 581 l 190 0 l 77 0 l 187 517 q 219 611 197 566 q 264 686 241 656 q 345 773 315 751 l 359 784 l 360 787 l 151 787 l 169 875 l 476 875 m 46 510 q 86 472 86 510 q 83 451 86 463 q 22 393 71 393 q -16 429 -16 393 q -14 451 -16 439 q 46 510 -1 510 z "},"טּ":{"ha":849,"x_min":86,"x_max":806,"o":"m 455 880 q 560 888 496 888 q 677 862 624 888 q 765 781 730 836 q 806 606 806 715 q 784 428 806 532 q 717 235 762 323 q 613 93 671 146 q 488 13 554 40 q 350 -14 422 -14 q 223 13 278 -14 q 132 94 169 39 q 86 277 86 162 q 104 437 86 348 l 197 875 l 314 875 l 221 437 q 203 288 203 351 q 229 154 203 204 q 283 101 248 121 q 370 81 318 81 q 465 101 421 81 q 541 154 509 121 q 598 235 572 187 q 685 526 662 351 q 691 612 691 570 q 682 685 691 653 q 655 742 673 716 q 533 794 620 794 q 435 787 477 794 l 455 880 m 453 510 q 493 472 493 510 q 490 451 493 463 q 429 393 478 393 q 391 429 391 393 q 393 451 391 439 q 453 510 406 510 z "},"יּ":{"ha":307,"x_min":-33,"x_max":310,"o":"m 97 296 l 74 296 l 197 875 l 310 875 l 211 411 l 97 296 m 29 677 q 69 639 69 677 q 66 618 69 629 q 5 559 54 559 q -33 596 -33 559 q -31 618 -33 606 q 29 677 -18 677 z "},"ךּ":{"ha":659,"x_min":104,"x_max":590,"o":"m 209 878 q 239 883 209 878 q 326 888 269 888 q 428 875 382 888 q 502 839 473 861 q 549 784 530 816 q 590 616 590 718 q 578 513 590 568 l 398 -334 l 286 -334 l 463 499 q 476 611 476 557 q 463 690 476 654 q 432 744 450 725 q 381 776 414 763 q 298 789 348 789 q 198 780 248 789 q 126 763 148 772 l 104 754 l 125 854 q 209 878 150 867 m 237 510 q 277 472 277 510 q 274 451 277 463 q 212 393 262 393 q 174 429 174 393 q 177 451 174 439 q 237 510 189 510 z "},"כּ":{"ha":633,"x_min":-45,"x_max":598,"o":"m 217 878 q 247 883 217 878 q 333 888 276 888 q 435 875 390 888 q 509 839 480 861 q 557 784 538 816 q 598 616 598 719 q 587 513 598 567 l 555 364 q 546 329 551 347 q 527 270 542 311 q 492 196 511 230 q 439 121 473 162 q 365 53 406 81 q 265 5 325 24 q 144 -14 205 -14 q 36 -7 82 -14 q -27 5 -9 -1 l -45 12 l -24 113 q 164 85 58 85 q 268 107 220 85 q 344 161 315 130 q 395 235 372 193 q 443 366 429 298 l 471 499 q 484 613 484 557 q 471 691 484 656 q 440 744 458 725 q 389 776 422 763 q 306 789 356 789 q 206 780 256 789 q 134 763 156 772 l 112 754 l 134 854 q 217 878 158 867 m 245 510 q 286 472 286 510 q 283 451 286 463 q 221 393 271 393 q 183 429 183 393 q 186 451 183 439 q 245 510 198 510 z "},"לּ":{"ha":661,"x_min":125,"x_max":716,"o":"m 716 875 l 698 787 l 485 340 l 342 0 l 229 0 l 371 340 l 585 787 l 125 787 l 181 1054 l 294 1054 l 256 875 l 716 875 m 216 510 q 256 472 256 510 q 253 451 256 463 q 191 393 241 393 q 153 429 153 393 q 156 451 153 439 q 216 510 168 510 z "},"מּ":{"ha":833,"x_min":-25,"x_max":772,"o":"m 298 783 l 303 783 q 475 877 370 850 q 566 888 520 888 q 742 811 694 888 q 772 692 772 763 q 761 598 772 650 l 634 0 l 336 0 l 354 87 l 540 87 l 648 593 q 656 645 656 626 q 640 732 656 702 q 507 793 606 793 q 441 782 475 793 q 384 755 408 771 q 308 696 332 721 l 298 685 l 88 0 l -25 0 l 182 673 q 189 748 189 696 q 182 833 189 800 l 174 875 l 287 875 q 298 783 298 846 m 429 510 q 469 472 469 510 q 466 451 469 463 q 404 393 454 393 q 366 429 366 393 q 369 451 366 439 q 429 510 381 510 z "},"נּ":{"ha":596,"x_min":-28,"x_max":550,"o":"m 378 888 q 550 736 550 888 q 541 656 550 700 l 447 214 q 417 105 435 159 q 387 26 399 52 l 375 0 l -28 0 l -9 87 l 293 87 q 334 214 317 138 l 425 646 q 431 721 436 692 q 415 764 426 750 q 381 788 404 779 q 331 798 357 798 q 235 785 284 798 l 254 874 q 378 888 311 888 m 208 510 q 248 472 248 510 q 245 451 248 463 q 183 393 233 393 q 145 429 145 393 q 148 451 145 439 q 208 510 160 510 z "},"סּ":{"ha":807,"x_min":44,"x_max":764,"o":"m 499 888 q 722 781 654 888 q 764 606 764 715 q 742 428 764 532 q 675 235 720 323 q 571 93 629 146 q 446 13 512 40 q 308 -14 380 -14 q 181 13 236 -14 q 90 94 127 39 q 44 277 44 162 q 62 437 44 348 q 137 652 90 564 q 237 787 184 740 l 149 781 l 170 877 q 499 888 315 888 m 357 791 q 247 634 294 733 q 180 443 199 534 q 161 286 161 351 q 187 154 161 204 q 241 101 205 121 q 328 81 276 81 q 423 101 379 81 q 499 154 467 121 q 556 235 530 187 q 643 526 622 352 q 648 586 648 565 q 648 609 648 607 q 609 740 648 688 q 479 792 570 792 l 357 791 m 417 510 q 457 472 457 510 q 454 451 457 463 q 393 393 442 393 q 355 429 355 393 q 357 451 355 439 q 417 510 370 510 z "},"ףּ":{"ha":818,"x_min":77,"x_max":741,"o":"m 77 500 q 88 586 77 535 q 129 688 99 636 q 199 775 159 739 q 286 838 239 812 q 482 888 381 888 q 697 781 628 888 q 741 603 741 714 q 722 437 741 530 l 558 -334 l 446 -334 l 610 437 q 629 587 629 524 q 602 721 629 671 q 549 774 584 754 q 457 794 513 794 q 350 773 400 794 q 267 719 299 753 q 190 576 205 653 q 182 504 182 541 q 201 438 182 467 q 318 375 232 391 l 347 370 l 311 286 l 286 290 q 115 378 170 305 q 77 500 77 427 m 422 642 q 463 604 463 642 q 460 583 463 594 q 398 524 448 524 q 360 561 360 524 q 363 583 360 570 q 422 642 375 642 z "},"פּ":{"ha":795,"x_min":45,"x_max":751,"o":"m 83 500 q 92 576 83 535 q 149 711 107 650 q 247 810 191 772 q 488 888 363 888 q 705 781 634 888 q 751 598 751 713 q 730 425 751 527 q 663 235 709 323 q 559 94 618 146 q 296 -14 441 -14 q 77 0 181 -14 l 45 5 l 66 102 q 98 96 66 101 q 192 86 130 91 q 310 81 254 81 q 411 101 367 81 q 487 154 455 121 q 545 235 519 187 q 616 437 591 317 q 635 587 635 524 q 608 721 635 671 q 555 774 590 754 q 469 794 519 794 q 375 780 418 794 q 303 744 332 766 q 250 693 273 722 q 195 576 209 640 q 188 504 188 541 q 208 438 188 467 q 323 375 238 391 l 353 370 l 317 286 l 292 290 q 121 378 176 305 q 83 500 83 427 m 438 633 q 478 595 478 633 q 475 574 478 586 q 414 516 463 516 q 376 553 376 516 q 378 574 376 562 q 438 633 391 633 z "},"צּ":{"ha":763,"x_min":-42,"x_max":793,"o":"m 793 877 q 742 709 750 736 q 730 669 742 709 q 703 594 715 622 q 678 540 691 566 q 652 494 665 513 q 622 452 640 475 q 585 412 604 429 q 490 348 541 371 l 620 87 l 602 0 l -42 0 l -24 87 l 349 87 l 503 80 l 503 83 l 342 389 l 137 875 l 265 875 l 437 454 l 452 423 q 554 528 511 454 q 633 720 596 601 l 681 877 l 793 877 m 165 452 q 205 414 205 452 q 203 393 205 405 q 141 335 191 335 q 103 372 103 335 q 106 393 103 381 q 165 452 118 452 z "},"קּ":{"ha":793,"x_min":-51,"x_max":848,"o":"m 830 788 l 655 442 q 521 167 547 227 q 465 23 471 52 l 460 0 l 348 0 l 353 23 q 403 155 362 68 q 463 280 444 242 q 550 456 532 422 l 718 788 l 186 788 l 205 875 l 848 875 l 830 788 m -51 -334 l 131 523 l 243 523 l 61 -334 l -51 -334 m 400 510 q 440 472 440 510 q 437 451 440 463 q 376 393 425 393 q 338 429 338 393 q 340 451 338 439 q 400 510 353 510 z "},"רּ":{"ha":665,"x_min":109,"x_max":605,"o":"m 130 884 q 301 888 226 888 q 424 879 376 888 q 511 850 471 870 q 572 798 551 829 q 605 683 605 749 q 596 610 605 650 l 467 0 l 354 0 l 484 612 q 490 648 490 634 q 488 677 490 661 q 478 712 486 693 q 455 745 471 731 q 420 768 439 759 q 378 783 402 777 q 270 793 333 793 q 109 788 206 793 l 130 884 m 237 510 q 277 472 277 510 q 274 451 277 463 q 212 393 262 393 q 174 429 174 393 q 177 451 174 439 q 237 510 189 510 z "},"שּ":{"ha":999,"x_min":49,"x_max":1031,"o":"m 376 87 q 621 182 509 87 q 724 309 677 229 q 803 493 771 388 l 919 874 l 1031 874 l 916 493 q 788 225 869 335 q 711 140 757 182 q 612 67 665 97 q 489 19 559 37 q 339 0 418 0 l 49 0 l 162 875 l 276 875 l 213 386 l 309 416 q 469 604 421 450 l 553 875 l 666 875 l 595 645 q 468 415 547 492 q 393 360 437 385 q 294 322 349 335 l 201 298 l 174 87 l 376 87 m 527 352 q 567 314 567 352 q 564 293 567 304 q 503 235 552 235 q 465 271 465 235 q 467 293 465 281 q 527 352 479 352 z "},"תּ":{"ha":879,"x_min":-46,"x_max":820,"o":"m 820 675 q 811 610 820 650 l 681 0 l 568 0 l 698 612 q 703 660 703 637 q 697 701 703 682 q 652 758 684 739 q 494 793 593 793 q 386 789 465 793 l 264 217 q 180 50 242 110 q 20 -9 119 -9 q -46 0 -8 -9 l -26 93 q 27 86 23 86 q 149 201 125 86 l 272 780 l 174 771 l 195 867 q 520 888 389 888 q 726 850 651 888 q 820 675 820 801 m 498 510 q 538 472 538 510 q 536 451 538 463 q 474 393 524 393 q 436 429 436 393 q 439 451 436 439 q 498 510 451 510 z "},"וֹ":{"ha":330,"x_min":16,"x_max":316,"o":"m 276 1089 q 316 1051 316 1089 q 313 1030 316 1042 q 252 972 301 972 q 214 1008 214 972 q 216 1030 214 1018 q 276 1089 229 1089 m 16 0 l 201 875 l 314 875 l 128 0 l 16 0 z "}," ":{"ha":361,"x_min":0,"x_max":0,"o":""}}}
